<?xml version="1.0" encoding="UTF-8" standalone="no"?>
<!DOCTYPE svg PUBLIC "-//W3C//DTD SVG 1.1//EN"
 "http://www.w3.org/Graphics/SVG/1.1/DTD/svg11.dtd">
<!-- Generated by graphviz version 2.40.1 (20161225.0304)
 -->
<!-- Title: Tree Pages: 1 -->
<svg width="2106pt" height="622pt"
 viewBox="0.00 0.00 2105.88 622.40" xmlns="http://www.w3.org/2000/svg" xmlns:xlink="http://www.w3.org/1999/xlink">
<g id="graph0" class="graph" transform="scale(1 1) rotate(0) translate(4 618.4)">
<title>Tree</title>
<polygon fill="#ffffff" stroke="transparent" points="-4,4 -4,-618.4 2101.8842,-618.4 2101.8842,4 -4,4"/>
<!-- 0 -->
<g id="node1" class="node">
<title>0</title>
<path fill="#f8dcc9" stroke="#000000" d="M1286.8922,-614.5003C1286.8922,-614.5003 1174.992,-614.5003 1174.992,-614.5003 1168.992,-614.5003 1162.992,-608.5003 1162.992,-602.5003 1162.992,-602.5003 1162.992,-551.0997 1162.992,-551.0997 1162.992,-545.0997 1168.992,-539.0997 1174.992,-539.0997 1174.992,-539.0997 1286.8922,-539.0997 1286.8922,-539.0997 1292.8922,-539.0997 1298.8922,-545.0997 1298.8922,-551.0997 1298.8922,-551.0997 1298.8922,-602.5003 1298.8922,-602.5003 1298.8922,-608.5003 1292.8922,-614.5003 1286.8922,-614.5003"/>
<text text-anchor="middle" x="1230.9421" y="-597.8" font-family="Helvetica,sans-Serif" font-size="14.00" fill="#000000">failures &lt;= 0.5</text>
<text text-anchor="middle" x="1230.9421" y="-581" font-family="Helvetica,sans-Serif" font-size="14.00" fill="#000000">samples = 100.0%</text>
<text text-anchor="middle" x="1230.9421" y="-564.2" font-family="Helvetica,sans-Serif" font-size="14.00" fill="#000000">value = [0.58, 0.42]</text>
<text text-anchor="middle" x="1230.9421" y="-547.4" font-family="Helvetica,sans-Serif" font-size="14.00" fill="#000000">class = fail</text>
</g>
<!-- 1 -->
<g id="node2" class="node">
<title>1</title>
<path fill="#fdf6f0" stroke="#000000" d="M911.4567,-503.3003C911.4567,-503.3003 784.4275,-503.3003 784.4275,-503.3003 778.4275,-503.3003 772.4275,-497.3003 772.4275,-491.3003 772.4275,-491.3003 772.4275,-439.8997 772.4275,-439.8997 772.4275,-433.8997 778.4275,-427.8997 784.4275,-427.8997 784.4275,-427.8997 911.4567,-427.8997 911.4567,-427.8997 917.4567,-427.8997 923.4567,-433.8997 923.4567,-439.8997 923.4567,-439.8997 923.4567,-491.3003 923.4567,-491.3003 923.4567,-497.3003 917.4567,-503.3003 911.4567,-503.3003"/>
<text text-anchor="middle" x="847.9421" y="-486.6" font-family="Helvetica,sans-Serif" font-size="14.00" fill="#000000">schoolsup_no &lt;= 0.5</text>
<text text-anchor="middle" x="847.9421" y="-469.8" font-family="Helvetica,sans-Serif" font-size="14.00" fill="#000000">samples = 79.0%</text>
<text text-anchor="middle" x="847.9421" y="-453" font-family="Helvetica,sans-Serif" font-size="14.00" fill="#000000">value = [0.519, 0.481]</text>
<text text-anchor="middle" x="847.9421" y="-436.2" font-family="Helvetica,sans-Serif" font-size="14.00" fill="#000000">class = fail</text>
</g>
<!-- 0&#45;&gt;1 -->
<g id="edge1" class="edge">
<title>0&#45;&gt;1</title>
<path fill="none" stroke="#000000" d="M1162.9107,-557.0478C1098.8849,-538.4586 1002.7594,-510.5496 933.5494,-490.4552"/>
<polygon fill="#000000" stroke="#000000" points="934.1198,-486.9763 923.5404,-487.5492 932.168,-493.6987 934.1198,-486.9763"/>
<text text-anchor="middle" x="935.5881" y="-505.2548" font-family="Helvetica,sans-Serif" font-size="14.00" fill="#000000">True</text>
</g>
<!-- 22 -->
<g id="node23" class="node">
<title>22</title>
<path fill="#eb9f68" stroke="#000000" d="M1601.4567,-503.3003C1601.4567,-503.3003 1474.4275,-503.3003 1474.4275,-503.3003 1468.4275,-503.3003 1462.4275,-497.3003 1462.4275,-491.3003 1462.4275,-491.3003 1462.4275,-439.8997 1462.4275,-439.8997 1462.4275,-433.8997 1468.4275,-427.8997 1474.4275,-427.8997 1474.4275,-427.8997 1601.4567,-427.8997 1601.4567,-427.8997 1607.4567,-427.8997 1613.4567,-433.8997 1613.4567,-439.8997 1613.4567,-439.8997 1613.4567,-491.3003 1613.4567,-491.3003 1613.4567,-497.3003 1607.4567,-503.3003 1601.4567,-503.3003"/>
<text text-anchor="middle" x="1537.9421" y="-486.6" font-family="Helvetica,sans-Serif" font-size="14.00" fill="#000000">failures &lt;= 2.5</text>
<text text-anchor="middle" x="1537.9421" y="-469.8" font-family="Helvetica,sans-Serif" font-size="14.00" fill="#000000">samples = 21.0%</text>
<text text-anchor="middle" x="1537.9421" y="-453" font-family="Helvetica,sans-Serif" font-size="14.00" fill="#000000">value = [0.807, 0.193]</text>
<text text-anchor="middle" x="1537.9421" y="-436.2" font-family="Helvetica,sans-Serif" font-size="14.00" fill="#000000">class = fail</text>
</g>
<!-- 0&#45;&gt;22 -->
<g id="edge22" class="edge">
<title>0&#45;&gt;22</title>
<path fill="none" stroke="#000000" d="M1298.6946,-552.259C1344.0532,-535.8295 1404.1196,-514.0725 1452.7185,-496.4693"/>
<polygon fill="#000000" stroke="#000000" points="1454.0673,-499.7033 1462.2776,-493.0068 1451.6834,-493.1217 1454.0673,-499.7033"/>
<text text-anchor="middle" x="1451.677" y="-511.4481" font-family="Helvetica,sans-Serif" font-size="14.00" fill="#000000">False</text>
</g>
<!-- 2 -->
<g id="node3" class="node">
<title>2</title>
<path fill="#eb9c63" stroke="#000000" d="M519.4567,-392.1003C519.4567,-392.1003 392.4275,-392.1003 392.4275,-392.1003 386.4275,-392.1003 380.4275,-386.1003 380.4275,-380.1003 380.4275,-380.1003 380.4275,-328.6997 380.4275,-328.6997 380.4275,-322.6997 386.4275,-316.6997 392.4275,-316.6997 392.4275,-316.6997 519.4567,-316.6997 519.4567,-316.6997 525.4567,-316.6997 531.4567,-322.6997 531.4567,-328.6997 531.4567,-328.6997 531.4567,-380.1003 531.4567,-380.1003 531.4567,-386.1003 525.4567,-392.1003 519.4567,-392.1003"/>
<text text-anchor="middle" x="455.9421" y="-375.4" font-family="Helvetica,sans-Serif" font-size="14.00" fill="#000000">Mjob_services &lt;= 0.5</text>
<text text-anchor="middle" x="455.9421" y="-358.6" font-family="Helvetica,sans-Serif" font-size="14.00" fill="#000000">samples = 10.1%</text>
<text text-anchor="middle" x="455.9421" y="-341.8" font-family="Helvetica,sans-Serif" font-size="14.00" fill="#000000">value = [0.825, 0.175]</text>
<text text-anchor="middle" x="455.9421" y="-325" font-family="Helvetica,sans-Serif" font-size="14.00" fill="#000000">class = fail</text>
</g>
<!-- 1&#45;&gt;2 -->
<g id="edge2" class="edge">
<title>1&#45;&gt;2</title>
<path fill="none" stroke="#000000" d="M772.3606,-444.1595C706.3061,-425.4216 610.4599,-398.2326 541.5847,-378.6945"/>
<polygon fill="#000000" stroke="#000000" points="542.2008,-375.2313 531.6252,-375.8693 540.2905,-381.9656 542.2008,-375.2313"/>
</g>
<!-- 13 -->
<g id="node14" class="node">
<title>13</title>
<path fill="#ecf5fc" stroke="#000000" d="M911.4567,-392.1003C911.4567,-392.1003 784.4275,-392.1003 784.4275,-392.1003 778.4275,-392.1003 772.4275,-386.1003 772.4275,-380.1003 772.4275,-380.1003 772.4275,-328.6997 772.4275,-328.6997 772.4275,-322.6997 778.4275,-316.6997 784.4275,-316.6997 784.4275,-316.6997 911.4567,-316.6997 911.4567,-316.6997 917.4567,-316.6997 923.4567,-322.6997 923.4567,-328.6997 923.4567,-328.6997 923.4567,-380.1003 923.4567,-380.1003 923.4567,-386.1003 917.4567,-392.1003 911.4567,-392.1003"/>
<text text-anchor="middle" x="847.9421" y="-375.4" font-family="Helvetica,sans-Serif" font-size="14.00" fill="#000000">famrel &lt;= 1.5</text>
<text text-anchor="middle" x="847.9421" y="-358.6" font-family="Helvetica,sans-Serif" font-size="14.00" fill="#000000">samples = 68.9%</text>
<text text-anchor="middle" x="847.9421" y="-341.8" font-family="Helvetica,sans-Serif" font-size="14.00" fill="#000000">value = [0.474, 0.526]</text>
<text text-anchor="middle" x="847.9421" y="-325" font-family="Helvetica,sans-Serif" font-size="14.00" fill="#000000">class = pass</text>
</g>
<!-- 1&#45;&gt;13 -->
<g id="edge13" class="edge">
<title>1&#45;&gt;13</title>
<path fill="none" stroke="#000000" d="M847.9421,-427.9528C847.9421,-419.62 847.9421,-410.6845 847.9421,-402.0137"/>
<polygon fill="#000000" stroke="#000000" points="851.4422,-402.0084 847.9421,-392.0085 844.4422,-402.0085 851.4422,-402.0084"/>
</g>
<!-- 3 -->
<g id="node4" class="node">
<title>3</title>
<path fill="#e78c49" stroke="#000000" d="M287.3464,-280.9003C287.3464,-280.9003 138.5378,-280.9003 138.5378,-280.9003 132.5378,-280.9003 126.5378,-274.9003 126.5378,-268.9003 126.5378,-268.9003 126.5378,-217.4997 126.5378,-217.4997 126.5378,-211.4997 132.5378,-205.4997 138.5378,-205.4997 138.5378,-205.4997 287.3464,-205.4997 287.3464,-205.4997 293.3464,-205.4997 299.3464,-211.4997 299.3464,-217.4997 299.3464,-217.4997 299.3464,-268.9003 299.3464,-268.9003 299.3464,-274.9003 293.3464,-280.9003 287.3464,-280.9003"/>
<text text-anchor="middle" x="212.9421" y="-264.2" font-family="Helvetica,sans-Serif" font-size="14.00" fill="#000000">reason_reputation &lt;= 0.5</text>
<text text-anchor="middle" x="212.9421" y="-247.4" font-family="Helvetica,sans-Serif" font-size="14.00" fill="#000000">samples = 6.6%</text>
<text text-anchor="middle" x="212.9421" y="-230.6" font-family="Helvetica,sans-Serif" font-size="14.00" fill="#000000">value = [0.923, 0.077]</text>
<text text-anchor="middle" x="212.9421" y="-213.8" font-family="Helvetica,sans-Serif" font-size="14.00" fill="#000000">class = fail</text>
</g>
<!-- 2&#45;&gt;3 -->
<g id="edge3" class="edge">
<title>2&#45;&gt;3</title>
<path fill="none" stroke="#000000" d="M380.3874,-319.8252C356.3151,-308.8094 329.4209,-296.5022 304.3507,-285.0298"/>
<polygon fill="#000000" stroke="#000000" points="305.7551,-281.8234 295.2055,-280.8448 302.8422,-288.1886 305.7551,-281.8234"/>
</g>
<!-- 8 -->
<g id="node9" class="node">
<title>8</title>
<path fill="#f3c7a7" stroke="#000000" d="M519.4567,-280.9003C519.4567,-280.9003 392.4275,-280.9003 392.4275,-280.9003 386.4275,-280.9003 380.4275,-274.9003 380.4275,-268.9003 380.4275,-268.9003 380.4275,-217.4997 380.4275,-217.4997 380.4275,-211.4997 386.4275,-205.4997 392.4275,-205.4997 392.4275,-205.4997 519.4567,-205.4997 519.4567,-205.4997 525.4567,-205.4997 531.4567,-211.4997 531.4567,-217.4997 531.4567,-217.4997 531.4567,-268.9003 531.4567,-268.9003 531.4567,-274.9003 525.4567,-280.9003 519.4567,-280.9003"/>
<text text-anchor="middle" x="455.9421" y="-264.2" font-family="Helvetica,sans-Serif" font-size="14.00" fill="#000000">Walc &lt;= 3.5</text>
<text text-anchor="middle" x="455.9421" y="-247.4" font-family="Helvetica,sans-Serif" font-size="14.00" fill="#000000">samples = 3.5%</text>
<text text-anchor="middle" x="455.9421" y="-230.6" font-family="Helvetica,sans-Serif" font-size="14.00" fill="#000000">value = [0.643, 0.357]</text>
<text text-anchor="middle" x="455.9421" y="-213.8" font-family="Helvetica,sans-Serif" font-size="14.00" fill="#000000">class = fail</text>
</g>
<!-- 2&#45;&gt;8 -->
<g id="edge8" class="edge">
<title>2&#45;&gt;8</title>
<path fill="none" stroke="#000000" d="M455.9421,-316.7528C455.9421,-308.42 455.9421,-299.4845 455.9421,-290.8137"/>
<polygon fill="#000000" stroke="#000000" points="459.4422,-290.8084 455.9421,-280.8085 452.4422,-290.8085 459.4422,-290.8084"/>
</g>
<!-- 4 -->
<g id="node5" class="node">
<title>4</title>
<path fill="#e58139" stroke="#000000" d="M107.8264,-161.4014C107.8264,-161.4014 12.0578,-161.4014 12.0578,-161.4014 6.0578,-161.4014 .0578,-155.4014 .0578,-149.4014 .0578,-149.4014 .0578,-114.5986 .0578,-114.5986 .0578,-108.5986 6.0578,-102.5986 12.0578,-102.5986 12.0578,-102.5986 107.8264,-102.5986 107.8264,-102.5986 113.8264,-102.5986 119.8264,-108.5986 119.8264,-114.5986 119.8264,-114.5986 119.8264,-149.4014 119.8264,-149.4014 119.8264,-155.4014 113.8264,-161.4014 107.8264,-161.4014"/>
<text text-anchor="middle" x="59.9421" y="-144.6" font-family="Helvetica,sans-Serif" font-size="14.00" fill="#000000">samples = 4.3%</text>
<text text-anchor="middle" x="59.9421" y="-127.8" font-family="Helvetica,sans-Serif" font-size="14.00" fill="#000000">value = [1.0, 0.0]</text>
<text text-anchor="middle" x="59.9421" y="-111" font-family="Helvetica,sans-Serif" font-size="14.00" fill="#000000">class = fail</text>
</g>
<!-- 3&#45;&gt;4 -->
<g id="edge4" class="edge">
<title>3&#45;&gt;4</title>
<path fill="none" stroke="#000000" d="M161.1433,-205.5528C144.3114,-193.3194 125.6924,-179.7871 109.062,-167.7002"/>
<polygon fill="#000000" stroke="#000000" points="110.7136,-164.5739 100.5667,-161.5258 106.5981,-170.2363 110.7136,-164.5739"/>
</g>
<!-- 5 -->
<g id="node6" class="node">
<title>5</title>
<path fill="#eca572" stroke="#000000" d="M276.4567,-169.7003C276.4567,-169.7003 149.4275,-169.7003 149.4275,-169.7003 143.4275,-169.7003 137.4275,-163.7003 137.4275,-157.7003 137.4275,-157.7003 137.4275,-106.2997 137.4275,-106.2997 137.4275,-100.2997 143.4275,-94.2997 149.4275,-94.2997 149.4275,-94.2997 276.4567,-94.2997 276.4567,-94.2997 282.4567,-94.2997 288.4567,-100.2997 288.4567,-106.2997 288.4567,-106.2997 288.4567,-157.7003 288.4567,-157.7003 288.4567,-163.7003 282.4567,-169.7003 276.4567,-169.7003"/>
<text text-anchor="middle" x="212.9421" y="-153" font-family="Helvetica,sans-Serif" font-size="14.00" fill="#000000">paid_yes &lt;= 0.5</text>
<text text-anchor="middle" x="212.9421" y="-136.2" font-family="Helvetica,sans-Serif" font-size="14.00" fill="#000000">samples = 2.3%</text>
<text text-anchor="middle" x="212.9421" y="-119.4" font-family="Helvetica,sans-Serif" font-size="14.00" fill="#000000">value = [0.778, 0.222]</text>
<text text-anchor="middle" x="212.9421" y="-102.6" font-family="Helvetica,sans-Serif" font-size="14.00" fill="#000000">class = fail</text>
</g>
<!-- 3&#45;&gt;5 -->
<g id="edge5" class="edge">
<title>3&#45;&gt;5</title>
<path fill="none" stroke="#000000" d="M212.9421,-205.5528C212.9421,-197.22 212.9421,-188.2845 212.9421,-179.6137"/>
<polygon fill="#000000" stroke="#000000" points="216.4422,-179.6084 212.9421,-169.6085 209.4422,-179.6085 216.4422,-179.6084"/>
</g>
<!-- 6 -->
<g id="node7" class="node">
<title>6</title>
<path fill="#e58139" stroke="#000000" d="M122.8264,-58.6014C122.8264,-58.6014 27.0578,-58.6014 27.0578,-58.6014 21.0578,-58.6014 15.0578,-52.6014 15.0578,-46.6014 15.0578,-46.6014 15.0578,-11.7986 15.0578,-11.7986 15.0578,-5.7986 21.0578,.2014 27.0578,.2014 27.0578,.2014 122.8264,.2014 122.8264,.2014 128.8264,.2014 134.8264,-5.7986 134.8264,-11.7986 134.8264,-11.7986 134.8264,-46.6014 134.8264,-46.6014 134.8264,-52.6014 128.8264,-58.6014 122.8264,-58.6014"/>
<text text-anchor="middle" x="74.9421" y="-41.8" font-family="Helvetica,sans-Serif" font-size="14.00" fill="#000000">samples = 1.3%</text>
<text text-anchor="middle" x="74.9421" y="-25" font-family="Helvetica,sans-Serif" font-size="14.00" fill="#000000">value = [1.0, 0.0]</text>
<text text-anchor="middle" x="74.9421" y="-8.2" font-family="Helvetica,sans-Serif" font-size="14.00" fill="#000000">class = fail</text>
</g>
<!-- 5&#45;&gt;6 -->
<g id="edge6" class="edge">
<title>5&#45;&gt;6</title>
<path fill="none" stroke="#000000" d="M162.3396,-94.3048C149.3406,-84.6215 135.4019,-74.2382 122.5597,-64.6717"/>
<polygon fill="#000000" stroke="#000000" points="124.4102,-61.6858 114.2998,-58.5186 120.2284,-67.2994 124.4102,-61.6858"/>
</g>
<!-- 7 -->
<g id="node8" class="node">
<title>7</title>
<path fill="#ffffff" stroke="#000000" d="M260.8264,-58.6014C260.8264,-58.6014 165.0578,-58.6014 165.0578,-58.6014 159.0578,-58.6014 153.0578,-52.6014 153.0578,-46.6014 153.0578,-46.6014 153.0578,-11.7986 153.0578,-11.7986 153.0578,-5.7986 159.0578,.2014 165.0578,.2014 165.0578,.2014 260.8264,.2014 260.8264,.2014 266.8264,.2014 272.8264,-5.7986 272.8264,-11.7986 272.8264,-11.7986 272.8264,-46.6014 272.8264,-46.6014 272.8264,-52.6014 266.8264,-58.6014 260.8264,-58.6014"/>
<text text-anchor="middle" x="212.9421" y="-41.8" font-family="Helvetica,sans-Serif" font-size="14.00" fill="#000000">samples = 1.0%</text>
<text text-anchor="middle" x="212.9421" y="-25" font-family="Helvetica,sans-Serif" font-size="14.00" fill="#000000">value = [0.5, 0.5]</text>
<text text-anchor="middle" x="212.9421" y="-8.2" font-family="Helvetica,sans-Serif" font-size="14.00" fill="#000000">class = fail</text>
</g>
<!-- 5&#45;&gt;7 -->
<g id="edge7" class="edge">
<title>5&#45;&gt;7</title>
<path fill="none" stroke="#000000" d="M212.9421,-94.3048C212.9421,-85.9126 212.9421,-76.9946 212.9421,-68.5382"/>
<polygon fill="#000000" stroke="#000000" points="216.4422,-68.5186 212.9421,-58.5186 209.4422,-68.5187 216.4422,-68.5186"/>
</g>
<!-- 9 -->
<g id="node10" class="node">
<title>9</title>
<path fill="#fbeade" stroke="#000000" d="M514.4567,-169.7003C514.4567,-169.7003 387.4275,-169.7003 387.4275,-169.7003 381.4275,-169.7003 375.4275,-163.7003 375.4275,-157.7003 375.4275,-157.7003 375.4275,-106.2997 375.4275,-106.2997 375.4275,-100.2997 381.4275,-94.2997 387.4275,-94.2997 387.4275,-94.2997 514.4567,-94.2997 514.4567,-94.2997 520.4567,-94.2997 526.4567,-100.2997 526.4567,-106.2997 526.4567,-106.2997 526.4567,-157.7003 526.4567,-157.7003 526.4567,-163.7003 520.4567,-169.7003 514.4567,-169.7003"/>
<text text-anchor="middle" x="450.9421" y="-153" font-family="Helvetica,sans-Serif" font-size="14.00" fill="#000000">famsup_no &lt;= 0.5</text>
<text text-anchor="middle" x="450.9421" y="-136.2" font-family="Helvetica,sans-Serif" font-size="14.00" fill="#000000">samples = 2.8%</text>
<text text-anchor="middle" x="450.9421" y="-119.4" font-family="Helvetica,sans-Serif" font-size="14.00" fill="#000000">value = [0.545, 0.455]</text>
<text text-anchor="middle" x="450.9421" y="-102.6" font-family="Helvetica,sans-Serif" font-size="14.00" fill="#000000">class = fail</text>
</g>
<!-- 8&#45;&gt;9 -->
<g id="edge9" class="edge">
<title>8&#45;&gt;9</title>
<path fill="none" stroke="#000000" d="M454.2493,-205.5528C453.8747,-197.22 453.4729,-188.2845 453.083,-179.6137"/>
<polygon fill="#000000" stroke="#000000" points="456.5789,-179.4411 452.6331,-169.6085 449.5859,-179.7556 456.5789,-179.4411"/>
</g>
<!-- 12 -->
<g id="node13" class="node">
<title>12</title>
<path fill="#e58139" stroke="#000000" d="M651.8264,-161.4014C651.8264,-161.4014 556.0578,-161.4014 556.0578,-161.4014 550.0578,-161.4014 544.0578,-155.4014 544.0578,-149.4014 544.0578,-149.4014 544.0578,-114.5986 544.0578,-114.5986 544.0578,-108.5986 550.0578,-102.5986 556.0578,-102.5986 556.0578,-102.5986 651.8264,-102.5986 651.8264,-102.5986 657.8264,-102.5986 663.8264,-108.5986 663.8264,-114.5986 663.8264,-114.5986 663.8264,-149.4014 663.8264,-149.4014 663.8264,-155.4014 657.8264,-161.4014 651.8264,-161.4014"/>
<text text-anchor="middle" x="603.9421" y="-144.6" font-family="Helvetica,sans-Serif" font-size="14.00" fill="#000000">samples = 0.8%</text>
<text text-anchor="middle" x="603.9421" y="-127.8" font-family="Helvetica,sans-Serif" font-size="14.00" fill="#000000">value = [1.0, 0.0]</text>
<text text-anchor="middle" x="603.9421" y="-111" font-family="Helvetica,sans-Serif" font-size="14.00" fill="#000000">class = fail</text>
</g>
<!-- 8&#45;&gt;12 -->
<g id="edge12" class="edge">
<title>8&#45;&gt;12</title>
<path fill="none" stroke="#000000" d="M506.0481,-205.5528C522.3299,-193.3194 540.3405,-179.7871 556.4274,-167.7002"/>
<polygon fill="#000000" stroke="#000000" points="558.7527,-170.331 564.6451,-161.5258 554.5479,-164.7346 558.7527,-170.331"/>
</g>
<!-- 10 -->
<g id="node11" class="node">
<title>10</title>
<path fill="#f2c09c" stroke="#000000" d="M429.4567,-58.6014C429.4567,-58.6014 302.4275,-58.6014 302.4275,-58.6014 296.4275,-58.6014 290.4275,-52.6014 290.4275,-46.6014 290.4275,-46.6014 290.4275,-11.7986 290.4275,-11.7986 290.4275,-5.7986 296.4275,.2014 302.4275,.2014 302.4275,.2014 429.4567,.2014 429.4567,.2014 435.4567,.2014 441.4567,-5.7986 441.4567,-11.7986 441.4567,-11.7986 441.4567,-46.6014 441.4567,-46.6014 441.4567,-52.6014 435.4567,-58.6014 429.4567,-58.6014"/>
<text text-anchor="middle" x="365.9421" y="-41.8" font-family="Helvetica,sans-Serif" font-size="14.00" fill="#000000">samples = 2.3%</text>
<text text-anchor="middle" x="365.9421" y="-25" font-family="Helvetica,sans-Serif" font-size="14.00" fill="#000000">value = [0.667, 0.333]</text>
<text text-anchor="middle" x="365.9421" y="-8.2" font-family="Helvetica,sans-Serif" font-size="14.00" fill="#000000">class = fail</text>
</g>
<!-- 9&#45;&gt;10 -->
<g id="edge10" class="edge">
<title>9&#45;&gt;10</title>
<path fill="none" stroke="#000000" d="M419.7739,-94.3048C412.2248,-85.1748 404.1611,-75.4225 396.6342,-66.3193"/>
<polygon fill="#000000" stroke="#000000" points="399.2539,-63.9951 390.1842,-58.5186 393.8591,-68.4557 399.2539,-63.9951"/>
</g>
<!-- 11 -->
<g id="node12" class="node">
<title>11</title>
<path fill="#399de5" stroke="#000000" d="M566.8264,-58.6014C566.8264,-58.6014 471.0578,-58.6014 471.0578,-58.6014 465.0578,-58.6014 459.0578,-52.6014 459.0578,-46.6014 459.0578,-46.6014 459.0578,-11.7986 459.0578,-11.7986 459.0578,-5.7986 465.0578,.2014 471.0578,.2014 471.0578,.2014 566.8264,.2014 566.8264,.2014 572.8264,.2014 578.8264,-5.7986 578.8264,-11.7986 578.8264,-11.7986 578.8264,-46.6014 578.8264,-46.6014 578.8264,-52.6014 572.8264,-58.6014 566.8264,-58.6014"/>
<text text-anchor="middle" x="518.9421" y="-41.8" font-family="Helvetica,sans-Serif" font-size="14.00" fill="#000000">samples = 0.5%</text>
<text text-anchor="middle" x="518.9421" y="-25" font-family="Helvetica,sans-Serif" font-size="14.00" fill="#000000">value = [0.0, 1.0]</text>
<text text-anchor="middle" x="518.9421" y="-8.2" font-family="Helvetica,sans-Serif" font-size="14.00" fill="#000000">class = pass</text>
</g>
<!-- 9&#45;&gt;11 -->
<g id="edge11" class="edge">
<title>9&#45;&gt;11</title>
<path fill="none" stroke="#000000" d="M475.8767,-94.3048C481.7939,-85.3593 488.1064,-75.8163 494.023,-66.8718"/>
<polygon fill="#000000" stroke="#000000" points="496.9506,-68.79 499.5485,-58.5186 491.1122,-64.9281 496.9506,-68.79"/>
</g>
<!-- 14 -->
<g id="node15" class="node">
<title>14</title>
<path fill="#399de5" stroke="#000000" d="M819.8264,-272.6014C819.8264,-272.6014 724.0578,-272.6014 724.0578,-272.6014 718.0578,-272.6014 712.0578,-266.6014 712.0578,-260.6014 712.0578,-260.6014 712.0578,-225.7986 712.0578,-225.7986 712.0578,-219.7986 718.0578,-213.7986 724.0578,-213.7986 724.0578,-213.7986 819.8264,-213.7986 819.8264,-213.7986 825.8264,-213.7986 831.8264,-219.7986 831.8264,-225.7986 831.8264,-225.7986 831.8264,-260.6014 831.8264,-260.6014 831.8264,-266.6014 825.8264,-272.6014 819.8264,-272.6014"/>
<text text-anchor="middle" x="771.9421" y="-255.8" font-family="Helvetica,sans-Serif" font-size="14.00" fill="#000000">samples = 1.5%</text>
<text text-anchor="middle" x="771.9421" y="-239" font-family="Helvetica,sans-Serif" font-size="14.00" fill="#000000">value = [0.0, 1.0]</text>
<text text-anchor="middle" x="771.9421" y="-222.2" font-family="Helvetica,sans-Serif" font-size="14.00" fill="#000000">class = pass</text>
</g>
<!-- 13&#45;&gt;14 -->
<g id="edge14" class="edge">
<title>13&#45;&gt;14</title>
<path fill="none" stroke="#000000" d="M822.212,-316.7528C814.388,-305.305 805.7866,-292.7199 797.9448,-281.246"/>
<polygon fill="#000000" stroke="#000000" points="800.6539,-279.0069 792.1216,-272.7258 794.8746,-282.9568 800.6539,-279.0069"/>
</g>
<!-- 15 -->
<g id="node16" class="node">
<title>15</title>
<path fill="#f3f9fd" stroke="#000000" d="M988.4567,-280.9003C988.4567,-280.9003 861.4275,-280.9003 861.4275,-280.9003 855.4275,-280.9003 849.4275,-274.9003 849.4275,-268.9003 849.4275,-268.9003 849.4275,-217.4997 849.4275,-217.4997 849.4275,-211.4997 855.4275,-205.4997 861.4275,-205.4997 861.4275,-205.4997 988.4567,-205.4997 988.4567,-205.4997 994.4567,-205.4997 1000.4567,-211.4997 1000.4567,-217.4997 1000.4567,-217.4997 1000.4567,-268.9003 1000.4567,-268.9003 1000.4567,-274.9003 994.4567,-280.9003 988.4567,-280.9003"/>
<text text-anchor="middle" x="924.9421" y="-264.2" font-family="Helvetica,sans-Serif" font-size="14.00" fill="#000000">Mjob_services &lt;= 0.5</text>
<text text-anchor="middle" x="924.9421" y="-247.4" font-family="Helvetica,sans-Serif" font-size="14.00" fill="#000000">samples = 67.3%</text>
<text text-anchor="middle" x="924.9421" y="-230.6" font-family="Helvetica,sans-Serif" font-size="14.00" fill="#000000">value = [0.485, 0.515]</text>
<text text-anchor="middle" x="924.9421" y="-213.8" font-family="Helvetica,sans-Serif" font-size="14.00" fill="#000000">class = pass</text>
</g>
<!-- 13&#45;&gt;15 -->
<g id="edge15" class="edge">
<title>13&#45;&gt;15</title>
<path fill="none" stroke="#000000" d="M874.0108,-316.7528C880.1571,-307.8765 886.7769,-298.3165 893.1444,-289.1209"/>
<polygon fill="#000000" stroke="#000000" points="896.0848,-291.0224 898.9003,-280.8085 890.3299,-287.0374 896.0848,-291.0224"/>
</g>
<!-- 16 -->
<g id="node17" class="node">
<title>16</title>
<path fill="#fcf1e9" stroke="#000000" d="M904.4567,-169.7003C904.4567,-169.7003 777.4275,-169.7003 777.4275,-169.7003 771.4275,-169.7003 765.4275,-163.7003 765.4275,-157.7003 765.4275,-157.7003 765.4275,-106.2997 765.4275,-106.2997 765.4275,-100.2997 771.4275,-94.2997 777.4275,-94.2997 777.4275,-94.2997 904.4567,-94.2997 904.4567,-94.2997 910.4567,-94.2997 916.4567,-100.2997 916.4567,-106.2997 916.4567,-106.2997 916.4567,-157.7003 916.4567,-157.7003 916.4567,-163.7003 910.4567,-169.7003 904.4567,-169.7003"/>
<text text-anchor="middle" x="840.9421" y="-153" font-family="Helvetica,sans-Serif" font-size="14.00" fill="#000000">Mjob_health &lt;= 0.5</text>
<text text-anchor="middle" x="840.9421" y="-136.2" font-family="Helvetica,sans-Serif" font-size="14.00" fill="#000000">samples = 52.7%</text>
<text text-anchor="middle" x="840.9421" y="-119.4" font-family="Helvetica,sans-Serif" font-size="14.00" fill="#000000">value = [0.529, 0.471]</text>
<text text-anchor="middle" x="840.9421" y="-102.6" font-family="Helvetica,sans-Serif" font-size="14.00" fill="#000000">class = fail</text>
</g>
<!-- 15&#45;&gt;16 -->
<g id="edge16" class="edge">
<title>15&#45;&gt;16</title>
<path fill="none" stroke="#000000" d="M896.5035,-205.5528C889.7301,-196.586 882.4294,-186.9213 875.418,-177.6395"/>
<polygon fill="#000000" stroke="#000000" points="878.1717,-175.4781 869.3514,-169.6085 872.5862,-179.6974 878.1717,-175.4781"/>
</g>
<!-- 19 -->
<g id="node20" class="node">
<title>19</title>
<path fill="#99cdf2" stroke="#000000" d="M1073.4567,-169.7003C1073.4567,-169.7003 946.4275,-169.7003 946.4275,-169.7003 940.4275,-169.7003 934.4275,-163.7003 934.4275,-157.7003 934.4275,-157.7003 934.4275,-106.2997 934.4275,-106.2997 934.4275,-100.2997 940.4275,-94.2997 946.4275,-94.2997 946.4275,-94.2997 1073.4567,-94.2997 1073.4567,-94.2997 1079.4567,-94.2997 1085.4567,-100.2997 1085.4567,-106.2997 1085.4567,-106.2997 1085.4567,-157.7003 1085.4567,-157.7003 1085.4567,-163.7003 1079.4567,-169.7003 1073.4567,-169.7003"/>
<text text-anchor="middle" x="1009.9421" y="-153" font-family="Helvetica,sans-Serif" font-size="14.00" fill="#000000">goout &lt;= 1.5</text>
<text text-anchor="middle" x="1009.9421" y="-136.2" font-family="Helvetica,sans-Serif" font-size="14.00" fill="#000000">samples = 14.7%</text>
<text text-anchor="middle" x="1009.9421" y="-119.4" font-family="Helvetica,sans-Serif" font-size="14.00" fill="#000000">value = [0.328, 0.672]</text>
<text text-anchor="middle" x="1009.9421" y="-102.6" font-family="Helvetica,sans-Serif" font-size="14.00" fill="#000000">class = pass</text>
</g>
<!-- 15&#45;&gt;19 -->
<g id="edge19" class="edge">
<title>15&#45;&gt;19</title>
<path fill="none" stroke="#000000" d="M953.7192,-205.5528C960.5733,-196.586 967.9609,-186.9213 975.0558,-177.6395"/>
<polygon fill="#000000" stroke="#000000" points="977.9023,-179.6788 981.1946,-169.6085 972.341,-175.4278 977.9023,-179.6788"/>
</g>
<!-- 17 -->
<g id="node18" class="node">
<title>17</title>
<path fill="#f9e1d0" stroke="#000000" d="M735.4567,-58.6014C735.4567,-58.6014 608.4275,-58.6014 608.4275,-58.6014 602.4275,-58.6014 596.4275,-52.6014 596.4275,-46.6014 596.4275,-46.6014 596.4275,-11.7986 596.4275,-11.7986 596.4275,-5.7986 602.4275,.2014 608.4275,.2014 608.4275,.2014 735.4567,.2014 735.4567,.2014 741.4567,.2014 747.4567,-5.7986 747.4567,-11.7986 747.4567,-11.7986 747.4567,-46.6014 747.4567,-46.6014 747.4567,-52.6014 741.4567,-58.6014 735.4567,-58.6014"/>
<text text-anchor="middle" x="671.9421" y="-41.8" font-family="Helvetica,sans-Serif" font-size="14.00" fill="#000000">samples = 45.6%</text>
<text text-anchor="middle" x="671.9421" y="-25" font-family="Helvetica,sans-Serif" font-size="14.00" fill="#000000">value = [0.567, 0.433]</text>
<text text-anchor="middle" x="671.9421" y="-8.2" font-family="Helvetica,sans-Serif" font-size="14.00" fill="#000000">class = fail</text>
</g>
<!-- 16&#45;&gt;17 -->
<g id="edge17" class="edge">
<title>16&#45;&gt;17</title>
<path fill="none" stroke="#000000" d="M778.9724,-94.3048C762.5985,-84.3448 745.0071,-73.6442 728.9117,-63.8537"/>
<polygon fill="#000000" stroke="#000000" points="730.5035,-60.7253 720.141,-58.5186 726.8656,-66.7058 730.5035,-60.7253"/>
</g>
<!-- 18 -->
<g id="node19" class="node">
<title>18</title>
<path fill="#88c4ef" stroke="#000000" d="M904.4567,-58.6014C904.4567,-58.6014 777.4275,-58.6014 777.4275,-58.6014 771.4275,-58.6014 765.4275,-52.6014 765.4275,-46.6014 765.4275,-46.6014 765.4275,-11.7986 765.4275,-11.7986 765.4275,-5.7986 771.4275,.2014 777.4275,.2014 777.4275,.2014 904.4567,.2014 904.4567,.2014 910.4567,.2014 916.4567,-5.7986 916.4567,-11.7986 916.4567,-11.7986 916.4567,-46.6014 916.4567,-46.6014 916.4567,-52.6014 910.4567,-58.6014 904.4567,-58.6014"/>
<text text-anchor="middle" x="840.9421" y="-41.8" font-family="Helvetica,sans-Serif" font-size="14.00" fill="#000000">samples = 7.1%</text>
<text text-anchor="middle" x="840.9421" y="-25" font-family="Helvetica,sans-Serif" font-size="14.00" fill="#000000">value = [0.286, 0.714]</text>
<text text-anchor="middle" x="840.9421" y="-8.2" font-family="Helvetica,sans-Serif" font-size="14.00" fill="#000000">class = pass</text>
</g>
<!-- 16&#45;&gt;18 -->
<g id="edge18" class="edge">
<title>16&#45;&gt;18</title>
<path fill="none" stroke="#000000" d="M840.9421,-94.3048C840.9421,-85.9126 840.9421,-76.9946 840.9421,-68.5382"/>
<polygon fill="#000000" stroke="#000000" points="844.4422,-68.5186 840.9421,-58.5186 837.4422,-68.5187 844.4422,-68.5186"/>
</g>
<!-- 20 -->
<g id="node21" class="node">
<title>20</title>
<path fill="#ea9a61" stroke="#000000" d="M1073.4567,-58.6014C1073.4567,-58.6014 946.4275,-58.6014 946.4275,-58.6014 940.4275,-58.6014 934.4275,-52.6014 934.4275,-46.6014 934.4275,-46.6014 934.4275,-11.7986 934.4275,-11.7986 934.4275,-5.7986 940.4275,.2014 946.4275,.2014 946.4275,.2014 1073.4567,.2014 1073.4567,.2014 1079.4567,.2014 1085.4567,-5.7986 1085.4567,-11.7986 1085.4567,-11.7986 1085.4567,-46.6014 1085.4567,-46.6014 1085.4567,-52.6014 1079.4567,-58.6014 1073.4567,-58.6014"/>
<text text-anchor="middle" x="1009.9421" y="-41.8" font-family="Helvetica,sans-Serif" font-size="14.00" fill="#000000">samples = 1.5%</text>
<text text-anchor="middle" x="1009.9421" y="-25" font-family="Helvetica,sans-Serif" font-size="14.00" fill="#000000">value = [0.833, 0.167]</text>
<text text-anchor="middle" x="1009.9421" y="-8.2" font-family="Helvetica,sans-Serif" font-size="14.00" fill="#000000">class = fail</text>
</g>
<!-- 19&#45;&gt;20 -->
<g id="edge20" class="edge">
<title>19&#45;&gt;20</title>
<path fill="none" stroke="#000000" d="M1009.9421,-94.3048C1009.9421,-85.9126 1009.9421,-76.9946 1009.9421,-68.5382"/>
<polygon fill="#000000" stroke="#000000" points="1013.4422,-68.5186 1009.9421,-58.5186 1006.4422,-68.5187 1013.4422,-68.5186"/>
</g>
<!-- 21 -->
<g id="node22" class="node">
<title>21</title>
<path fill="#82c1ef" stroke="#000000" d="M1242.4567,-58.6014C1242.4567,-58.6014 1115.4275,-58.6014 1115.4275,-58.6014 1109.4275,-58.6014 1103.4275,-52.6014 1103.4275,-46.6014 1103.4275,-46.6014 1103.4275,-11.7986 1103.4275,-11.7986 1103.4275,-5.7986 1109.4275,.2014 1115.4275,.2014 1115.4275,.2014 1242.4567,.2014 1242.4567,.2014 1248.4567,.2014 1254.4567,-5.7986 1254.4567,-11.7986 1254.4567,-11.7986 1254.4567,-46.6014 1254.4567,-46.6014 1254.4567,-52.6014 1248.4567,-58.6014 1242.4567,-58.6014"/>
<text text-anchor="middle" x="1178.9421" y="-41.8" font-family="Helvetica,sans-Serif" font-size="14.00" fill="#000000">samples = 13.2%</text>
<text text-anchor="middle" x="1178.9421" y="-25" font-family="Helvetica,sans-Serif" font-size="14.00" fill="#000000">value = [0.269, 0.731]</text>
<text text-anchor="middle" x="1178.9421" y="-8.2" font-family="Helvetica,sans-Serif" font-size="14.00" fill="#000000">class = pass</text>
</g>
<!-- 19&#45;&gt;21 -->
<g id="edge21" class="edge">
<title>19&#45;&gt;21</title>
<path fill="none" stroke="#000000" d="M1071.9118,-94.3048C1088.2857,-84.3448 1105.8771,-73.6442 1121.9725,-63.8537"/>
<polygon fill="#000000" stroke="#000000" points="1124.0186,-66.7058 1130.7432,-58.5186 1120.3807,-60.7253 1124.0186,-66.7058"/>
</g>
<!-- 23 -->
<g id="node24" class="node">
<title>23</title>
<path fill="#eda977" stroke="#000000" d="M1601.4567,-392.1003C1601.4567,-392.1003 1474.4275,-392.1003 1474.4275,-392.1003 1468.4275,-392.1003 1462.4275,-386.1003 1462.4275,-380.1003 1462.4275,-380.1003 1462.4275,-328.6997 1462.4275,-328.6997 1462.4275,-322.6997 1468.4275,-316.6997 1474.4275,-316.6997 1474.4275,-316.6997 1601.4567,-316.6997 1601.4567,-316.6997 1607.4567,-316.6997 1613.4567,-322.6997 1613.4567,-328.6997 1613.4567,-328.6997 1613.4567,-380.1003 1613.4567,-380.1003 1613.4567,-386.1003 1607.4567,-392.1003 1601.4567,-392.1003"/>
<text text-anchor="middle" x="1537.9421" y="-375.4" font-family="Helvetica,sans-Serif" font-size="14.00" fill="#000000">freetime &lt;= 3.5</text>
<text text-anchor="middle" x="1537.9421" y="-358.6" font-family="Helvetica,sans-Serif" font-size="14.00" fill="#000000">samples = 17.0%</text>
<text text-anchor="middle" x="1537.9421" y="-341.8" font-family="Helvetica,sans-Serif" font-size="14.00" fill="#000000">value = [0.761, 0.239]</text>
<text text-anchor="middle" x="1537.9421" y="-325" font-family="Helvetica,sans-Serif" font-size="14.00" fill="#000000">class = fail</text>
</g>
<!-- 22&#45;&gt;23 -->
<g id="edge23" class="edge">
<title>22&#45;&gt;23</title>
<path fill="none" stroke="#000000" d="M1537.9421,-427.9528C1537.9421,-419.62 1537.9421,-410.6845 1537.9421,-402.0137"/>
<polygon fill="#000000" stroke="#000000" points="1541.4422,-402.0084 1537.9421,-392.0085 1534.4422,-402.0085 1541.4422,-402.0084"/>
</g>
<!-- 36 -->
<g id="node37" class="node">
<title>36</title>
<path fill="#e58139" stroke="#000000" d="M1738.8264,-383.8014C1738.8264,-383.8014 1643.0578,-383.8014 1643.0578,-383.8014 1637.0578,-383.8014 1631.0578,-377.8014 1631.0578,-371.8014 1631.0578,-371.8014 1631.0578,-336.9986 1631.0578,-336.9986 1631.0578,-330.9986 1637.0578,-324.9986 1643.0578,-324.9986 1643.0578,-324.9986 1738.8264,-324.9986 1738.8264,-324.9986 1744.8264,-324.9986 1750.8264,-330.9986 1750.8264,-336.9986 1750.8264,-336.9986 1750.8264,-371.8014 1750.8264,-371.8014 1750.8264,-377.8014 1744.8264,-383.8014 1738.8264,-383.8014"/>
<text text-anchor="middle" x="1690.9421" y="-367" font-family="Helvetica,sans-Serif" font-size="14.00" fill="#000000">samples = 4.1%</text>
<text text-anchor="middle" x="1690.9421" y="-350.2" font-family="Helvetica,sans-Serif" font-size="14.00" fill="#000000">value = [1.0, 0.0]</text>
<text text-anchor="middle" x="1690.9421" y="-333.4" font-family="Helvetica,sans-Serif" font-size="14.00" fill="#000000">class = fail</text>
</g>
<!-- 22&#45;&gt;36 -->
<g id="edge36" class="edge">
<title>22&#45;&gt;36</title>
<path fill="none" stroke="#000000" d="M1589.7409,-427.9528C1606.5728,-415.7194 1625.1918,-402.1871 1641.8222,-390.1002"/>
<polygon fill="#000000" stroke="#000000" points="1644.2861,-392.6363 1650.3175,-383.9258 1640.1706,-386.9739 1644.2861,-392.6363"/>
</g>
<!-- 24 -->
<g id="node25" class="node">
<title>24</title>
<path fill="#e89253" stroke="#000000" d="M1601.4567,-280.9003C1601.4567,-280.9003 1474.4275,-280.9003 1474.4275,-280.9003 1468.4275,-280.9003 1462.4275,-274.9003 1462.4275,-268.9003 1462.4275,-268.9003 1462.4275,-217.4997 1462.4275,-217.4997 1462.4275,-211.4997 1468.4275,-205.4997 1474.4275,-205.4997 1474.4275,-205.4997 1601.4567,-205.4997 1601.4567,-205.4997 1607.4567,-205.4997 1613.4567,-211.4997 1613.4567,-217.4997 1613.4567,-217.4997 1613.4567,-268.9003 1613.4567,-268.9003 1613.4567,-274.9003 1607.4567,-280.9003 1601.4567,-280.9003"/>
<text text-anchor="middle" x="1537.9421" y="-264.2" font-family="Helvetica,sans-Serif" font-size="14.00" fill="#000000">freetime &lt;= 1.5</text>
<text text-anchor="middle" x="1537.9421" y="-247.4" font-family="Helvetica,sans-Serif" font-size="14.00" fill="#000000">samples = 8.6%</text>
<text text-anchor="middle" x="1537.9421" y="-230.6" font-family="Helvetica,sans-Serif" font-size="14.00" fill="#000000">value = [0.882, 0.118]</text>
<text text-anchor="middle" x="1537.9421" y="-213.8" font-family="Helvetica,sans-Serif" font-size="14.00" fill="#000000">class = fail</text>
</g>
<!-- 23&#45;&gt;24 -->
<g id="edge24" class="edge">
<title>23&#45;&gt;24</title>
<path fill="none" stroke="#000000" d="M1537.9421,-316.7528C1537.9421,-308.42 1537.9421,-299.4845 1537.9421,-290.8137"/>
<polygon fill="#000000" stroke="#000000" points="1541.4422,-290.8084 1537.9421,-280.8085 1534.4422,-290.8085 1541.4422,-290.8084"/>
</g>
<!-- 31 -->
<g id="node32" class="node">
<title>31</title>
<path fill="#f4c9aa" stroke="#000000" d="M1955.4567,-280.9003C1955.4567,-280.9003 1828.4275,-280.9003 1828.4275,-280.9003 1822.4275,-280.9003 1816.4275,-274.9003 1816.4275,-268.9003 1816.4275,-268.9003 1816.4275,-217.4997 1816.4275,-217.4997 1816.4275,-211.4997 1822.4275,-205.4997 1828.4275,-205.4997 1828.4275,-205.4997 1955.4567,-205.4997 1955.4567,-205.4997 1961.4567,-205.4997 1967.4567,-211.4997 1967.4567,-217.4997 1967.4567,-217.4997 1967.4567,-268.9003 1967.4567,-268.9003 1967.4567,-274.9003 1961.4567,-280.9003 1955.4567,-280.9003"/>
<text text-anchor="middle" x="1891.9421" y="-264.2" font-family="Helvetica,sans-Serif" font-size="14.00" fill="#000000">Fjob_at_home &lt;= 0.5</text>
<text text-anchor="middle" x="1891.9421" y="-247.4" font-family="Helvetica,sans-Serif" font-size="14.00" fill="#000000">samples = 8.4%</text>
<text text-anchor="middle" x="1891.9421" y="-230.6" font-family="Helvetica,sans-Serif" font-size="14.00" fill="#000000">value = [0.636, 0.364]</text>
<text text-anchor="middle" x="1891.9421" y="-213.8" font-family="Helvetica,sans-Serif" font-size="14.00" fill="#000000">class = fail</text>
</g>
<!-- 23&#45;&gt;31 -->
<g id="edge31" class="edge">
<title>23&#45;&gt;31</title>
<path fill="none" stroke="#000000" d="M1613.733,-319.843C1616.4917,-318.7868 1619.2341,-317.7686 1621.9421,-316.8 1682.5583,-295.1188 1752.7586,-276.1642 1806.3827,-262.922"/>
<polygon fill="#000000" stroke="#000000" points="1807.3174,-266.2966 1816.1966,-260.5165 1805.6508,-259.4979 1807.3174,-266.2966"/>
</g>
<!-- 25 -->
<g id="node26" class="node">
<title>25</title>
<path fill="#ffffff" stroke="#000000" d="M1509.8264,-169.7003C1509.8264,-169.7003 1414.0578,-169.7003 1414.0578,-169.7003 1408.0578,-169.7003 1402.0578,-163.7003 1402.0578,-157.7003 1402.0578,-157.7003 1402.0578,-106.2997 1402.0578,-106.2997 1402.0578,-100.2997 1408.0578,-94.2997 1414.0578,-94.2997 1414.0578,-94.2997 1509.8264,-94.2997 1509.8264,-94.2997 1515.8264,-94.2997 1521.8264,-100.2997 1521.8264,-106.2997 1521.8264,-106.2997 1521.8264,-157.7003 1521.8264,-157.7003 1521.8264,-163.7003 1515.8264,-169.7003 1509.8264,-169.7003"/>
<text text-anchor="middle" x="1461.9421" y="-153" font-family="Helvetica,sans-Serif" font-size="14.00" fill="#000000">absences &lt;= 4.0</text>
<text text-anchor="middle" x="1461.9421" y="-136.2" font-family="Helvetica,sans-Serif" font-size="14.00" fill="#000000">samples = 1.5%</text>
<text text-anchor="middle" x="1461.9421" y="-119.4" font-family="Helvetica,sans-Serif" font-size="14.00" fill="#000000">value = [0.5, 0.5]</text>
<text text-anchor="middle" x="1461.9421" y="-102.6" font-family="Helvetica,sans-Serif" font-size="14.00" fill="#000000">class = fail</text>
</g>
<!-- 24&#45;&gt;25 -->
<g id="edge25" class="edge">
<title>24&#45;&gt;25</title>
<path fill="none" stroke="#000000" d="M1512.212,-205.5528C1506.1455,-196.6765 1499.6116,-187.1165 1493.3269,-177.9209"/>
<polygon fill="#000000" stroke="#000000" points="1496.178,-175.8896 1487.6457,-169.6085 1490.3988,-179.8394 1496.178,-175.8896"/>
</g>
<!-- 28 -->
<g id="node29" class="node">
<title>28</title>
<path fill="#e68640" stroke="#000000" d="M1678.4567,-169.7003C1678.4567,-169.7003 1551.4275,-169.7003 1551.4275,-169.7003 1545.4275,-169.7003 1539.4275,-163.7003 1539.4275,-157.7003 1539.4275,-157.7003 1539.4275,-106.2997 1539.4275,-106.2997 1539.4275,-100.2997 1545.4275,-94.2997 1551.4275,-94.2997 1551.4275,-94.2997 1678.4567,-94.2997 1678.4567,-94.2997 1684.4567,-94.2997 1690.4567,-100.2997 1690.4567,-106.2997 1690.4567,-106.2997 1690.4567,-157.7003 1690.4567,-157.7003 1690.4567,-163.7003 1684.4567,-169.7003 1678.4567,-169.7003"/>
<text text-anchor="middle" x="1614.9421" y="-153" font-family="Helvetica,sans-Serif" font-size="14.00" fill="#000000">Fjob_teacher &lt;= 0.5</text>
<text text-anchor="middle" x="1614.9421" y="-136.2" font-family="Helvetica,sans-Serif" font-size="14.00" fill="#000000">samples = 7.1%</text>
<text text-anchor="middle" x="1614.9421" y="-119.4" font-family="Helvetica,sans-Serif" font-size="14.00" fill="#000000">value = [0.964, 0.036]</text>
<text text-anchor="middle" x="1614.9421" y="-102.6" font-family="Helvetica,sans-Serif" font-size="14.00" fill="#000000">class = fail</text>
</g>
<!-- 24&#45;&gt;28 -->
<g id="edge28" class="edge">
<title>24&#45;&gt;28</title>
<path fill="none" stroke="#000000" d="M1564.0108,-205.5528C1570.1571,-196.6765 1576.7769,-187.1165 1583.1444,-177.9209"/>
<polygon fill="#000000" stroke="#000000" points="1586.0848,-179.8224 1588.9003,-169.6085 1580.3299,-175.8374 1586.0848,-179.8224"/>
</g>
<!-- 26 -->
<g id="node27" class="node">
<title>26</title>
<path fill="#e58139" stroke="#000000" d="M1379.8264,-58.6014C1379.8264,-58.6014 1284.0578,-58.6014 1284.0578,-58.6014 1278.0578,-58.6014 1272.0578,-52.6014 1272.0578,-46.6014 1272.0578,-46.6014 1272.0578,-11.7986 1272.0578,-11.7986 1272.0578,-5.7986 1278.0578,.2014 1284.0578,.2014 1284.0578,.2014 1379.8264,.2014 1379.8264,.2014 1385.8264,.2014 1391.8264,-5.7986 1391.8264,-11.7986 1391.8264,-11.7986 1391.8264,-46.6014 1391.8264,-46.6014 1391.8264,-52.6014 1385.8264,-58.6014 1379.8264,-58.6014"/>
<text text-anchor="middle" x="1331.9421" y="-41.8" font-family="Helvetica,sans-Serif" font-size="14.00" fill="#000000">samples = 0.8%</text>
<text text-anchor="middle" x="1331.9421" y="-25" font-family="Helvetica,sans-Serif" font-size="14.00" fill="#000000">value = [1.0, 0.0]</text>
<text text-anchor="middle" x="1331.9421" y="-8.2" font-family="Helvetica,sans-Serif" font-size="14.00" fill="#000000">class = fail</text>
</g>
<!-- 25&#45;&gt;26 -->
<g id="edge26" class="edge">
<title>25&#45;&gt;26</title>
<path fill="none" stroke="#000000" d="M1414.2731,-94.3048C1402.1443,-84.7137 1389.147,-74.4359 1377.1452,-64.9452"/>
<polygon fill="#000000" stroke="#000000" points="1379.0331,-61.976 1369.0182,-58.5186 1374.6911,-67.4667 1379.0331,-61.976"/>
</g>
<!-- 27 -->
<g id="node28" class="node">
<title>27</title>
<path fill="#399de5" stroke="#000000" d="M1517.8264,-58.6014C1517.8264,-58.6014 1422.0578,-58.6014 1422.0578,-58.6014 1416.0578,-58.6014 1410.0578,-52.6014 1410.0578,-46.6014 1410.0578,-46.6014 1410.0578,-11.7986 1410.0578,-11.7986 1410.0578,-5.7986 1416.0578,.2014 1422.0578,.2014 1422.0578,.2014 1517.8264,.2014 1517.8264,.2014 1523.8264,.2014 1529.8264,-5.7986 1529.8264,-11.7986 1529.8264,-11.7986 1529.8264,-46.6014 1529.8264,-46.6014 1529.8264,-52.6014 1523.8264,-58.6014 1517.8264,-58.6014"/>
<text text-anchor="middle" x="1469.9421" y="-41.8" font-family="Helvetica,sans-Serif" font-size="14.00" fill="#000000">samples = 0.8%</text>
<text text-anchor="middle" x="1469.9421" y="-25" font-family="Helvetica,sans-Serif" font-size="14.00" fill="#000000">value = [0.0, 1.0]</text>
<text text-anchor="middle" x="1469.9421" y="-8.2" font-family="Helvetica,sans-Serif" font-size="14.00" fill="#000000">class = pass</text>
</g>
<!-- 25&#45;&gt;27 -->
<g id="edge27" class="edge">
<title>25&#45;&gt;27</title>
<path fill="none" stroke="#000000" d="M1464.8756,-94.3048C1465.5287,-85.9126 1466.2227,-76.9946 1466.8808,-68.5382"/>
<polygon fill="#000000" stroke="#000000" points="1470.374,-68.7601 1467.6605,-58.5186 1463.3951,-68.2169 1470.374,-68.7601"/>
</g>
<!-- 29 -->
<g id="node30" class="node">
<title>29</title>
<path fill="#e58139" stroke="#000000" d="M1655.8264,-58.6014C1655.8264,-58.6014 1560.0578,-58.6014 1560.0578,-58.6014 1554.0578,-58.6014 1548.0578,-52.6014 1548.0578,-46.6014 1548.0578,-46.6014 1548.0578,-11.7986 1548.0578,-11.7986 1548.0578,-5.7986 1554.0578,.2014 1560.0578,.2014 1560.0578,.2014 1655.8264,.2014 1655.8264,.2014 1661.8264,.2014 1667.8264,-5.7986 1667.8264,-11.7986 1667.8264,-11.7986 1667.8264,-46.6014 1667.8264,-46.6014 1667.8264,-52.6014 1661.8264,-58.6014 1655.8264,-58.6014"/>
<text text-anchor="middle" x="1607.9421" y="-41.8" font-family="Helvetica,sans-Serif" font-size="14.00" fill="#000000">samples = 6.6%</text>
<text text-anchor="middle" x="1607.9421" y="-25" font-family="Helvetica,sans-Serif" font-size="14.00" fill="#000000">value = [1.0, 0.0]</text>
<text text-anchor="middle" x="1607.9421" y="-8.2" font-family="Helvetica,sans-Serif" font-size="14.00" fill="#000000">class = fail</text>
</g>
<!-- 28&#45;&gt;29 -->
<g id="edge29" class="edge">
<title>28&#45;&gt;29</title>
<path fill="none" stroke="#000000" d="M1612.3753,-94.3048C1611.8039,-85.9126 1611.1966,-76.9946 1610.6208,-68.5382"/>
<polygon fill="#000000" stroke="#000000" points="1614.1099,-68.2577 1609.9385,-58.5186 1607.126,-68.7333 1614.1099,-68.2577"/>
</g>
<!-- 30 -->
<g id="node31" class="node">
<title>30</title>
<path fill="#ffffff" stroke="#000000" d="M1793.8264,-58.6014C1793.8264,-58.6014 1698.0578,-58.6014 1698.0578,-58.6014 1692.0578,-58.6014 1686.0578,-52.6014 1686.0578,-46.6014 1686.0578,-46.6014 1686.0578,-11.7986 1686.0578,-11.7986 1686.0578,-5.7986 1692.0578,.2014 1698.0578,.2014 1698.0578,.2014 1793.8264,.2014 1793.8264,.2014 1799.8264,.2014 1805.8264,-5.7986 1805.8264,-11.7986 1805.8264,-11.7986 1805.8264,-46.6014 1805.8264,-46.6014 1805.8264,-52.6014 1799.8264,-58.6014 1793.8264,-58.6014"/>
<text text-anchor="middle" x="1745.9421" y="-41.8" font-family="Helvetica,sans-Serif" font-size="14.00" fill="#000000">samples = 0.5%</text>
<text text-anchor="middle" x="1745.9421" y="-25" font-family="Helvetica,sans-Serif" font-size="14.00" fill="#000000">value = [0.5, 0.5]</text>
<text text-anchor="middle" x="1745.9421" y="-8.2" font-family="Helvetica,sans-Serif" font-size="14.00" fill="#000000">class = fail</text>
</g>
<!-- 28&#45;&gt;30 -->
<g id="edge30" class="edge">
<title>28&#45;&gt;30</title>
<path fill="none" stroke="#000000" d="M1662.9778,-94.3048C1675.1999,-84.7137 1688.2972,-74.4359 1700.3913,-64.9452"/>
<polygon fill="#000000" stroke="#000000" points="1702.8746,-67.4455 1708.5808,-58.5186 1698.5531,-61.9387 1702.8746,-67.4455"/>
</g>
<!-- 32 -->
<g id="node33" class="node">
<title>32</title>
<path fill="#f0b78e" stroke="#000000" d="M1939.8264,-169.7003C1939.8264,-169.7003 1844.0578,-169.7003 1844.0578,-169.7003 1838.0578,-169.7003 1832.0578,-163.7003 1832.0578,-157.7003 1832.0578,-157.7003 1832.0578,-106.2997 1832.0578,-106.2997 1832.0578,-100.2997 1838.0578,-94.2997 1844.0578,-94.2997 1844.0578,-94.2997 1939.8264,-94.2997 1939.8264,-94.2997 1945.8264,-94.2997 1951.8264,-100.2997 1951.8264,-106.2997 1951.8264,-106.2997 1951.8264,-157.7003 1951.8264,-157.7003 1951.8264,-163.7003 1945.8264,-169.7003 1939.8264,-169.7003"/>
<text text-anchor="middle" x="1891.9421" y="-153" font-family="Helvetica,sans-Serif" font-size="14.00" fill="#000000">Fedu &lt;= 3.5</text>
<text text-anchor="middle" x="1891.9421" y="-136.2" font-family="Helvetica,sans-Serif" font-size="14.00" fill="#000000">samples = 7.6%</text>
<text text-anchor="middle" x="1891.9421" y="-119.4" font-family="Helvetica,sans-Serif" font-size="14.00" fill="#000000">value = [0.7, 0.3]</text>
<text text-anchor="middle" x="1891.9421" y="-102.6" font-family="Helvetica,sans-Serif" font-size="14.00" fill="#000000">class = fail</text>
</g>
<!-- 31&#45;&gt;32 -->
<g id="edge32" class="edge">
<title>31&#45;&gt;32</title>
<path fill="none" stroke="#000000" d="M1891.9421,-205.5528C1891.9421,-197.22 1891.9421,-188.2845 1891.9421,-179.6137"/>
<polygon fill="#000000" stroke="#000000" points="1895.4422,-179.6084 1891.9421,-169.6085 1888.4422,-179.6085 1895.4422,-179.6084"/>
</g>
<!-- 35 -->
<g id="node36" class="node">
<title>35</title>
<path fill="#399de5" stroke="#000000" d="M2077.8264,-161.4014C2077.8264,-161.4014 1982.0578,-161.4014 1982.0578,-161.4014 1976.0578,-161.4014 1970.0578,-155.4014 1970.0578,-149.4014 1970.0578,-149.4014 1970.0578,-114.5986 1970.0578,-114.5986 1970.0578,-108.5986 1976.0578,-102.5986 1982.0578,-102.5986 1982.0578,-102.5986 2077.8264,-102.5986 2077.8264,-102.5986 2083.8264,-102.5986 2089.8264,-108.5986 2089.8264,-114.5986 2089.8264,-114.5986 2089.8264,-149.4014 2089.8264,-149.4014 2089.8264,-155.4014 2083.8264,-161.4014 2077.8264,-161.4014"/>
<text text-anchor="middle" x="2029.9421" y="-144.6" font-family="Helvetica,sans-Serif" font-size="14.00" fill="#000000">samples = 0.8%</text>
<text text-anchor="middle" x="2029.9421" y="-127.8" font-family="Helvetica,sans-Serif" font-size="14.00" fill="#000000">value = [0.0, 1.0]</text>
<text text-anchor="middle" x="2029.9421" y="-111" font-family="Helvetica,sans-Serif" font-size="14.00" fill="#000000">class = pass</text>
</g>
<!-- 31&#45;&gt;35 -->
<g id="edge35" class="edge">
<title>31&#45;&gt;35</title>
<path fill="none" stroke="#000000" d="M1938.6626,-205.5528C1953.705,-193.4316 1970.3299,-180.0353 1985.2246,-168.0332"/>
<polygon fill="#000000" stroke="#000000" points="1987.7097,-170.5256 1993.3003,-161.5258 1983.3176,-165.075 1987.7097,-170.5256"/>
</g>
<!-- 33 -->
<g id="node34" class="node">
<title>33</title>
<path fill="#f4c8a8" stroke="#000000" d="M1947.8922,-58.6014C1947.8922,-58.6014 1835.992,-58.6014 1835.992,-58.6014 1829.992,-58.6014 1823.992,-52.6014 1823.992,-46.6014 1823.992,-46.6014 1823.992,-11.7986 1823.992,-11.7986 1823.992,-5.7986 1829.992,.2014 1835.992,.2014 1835.992,.2014 1947.8922,.2014 1947.8922,.2014 1953.8922,.2014 1959.8922,-5.7986 1959.8922,-11.7986 1959.8922,-11.7986 1959.8922,-46.6014 1959.8922,-46.6014 1959.8922,-52.6014 1953.8922,-58.6014 1947.8922,-58.6014"/>
<text text-anchor="middle" x="1891.9421" y="-41.8" font-family="Helvetica,sans-Serif" font-size="14.00" fill="#000000">samples = 6.3%</text>
<text text-anchor="middle" x="1891.9421" y="-25" font-family="Helvetica,sans-Serif" font-size="14.00" fill="#000000">value = [0.64, 0.36]</text>
<text text-anchor="middle" x="1891.9421" y="-8.2" font-family="Helvetica,sans-Serif" font-size="14.00" fill="#000000">class = fail</text>
</g>
<!-- 32&#45;&gt;33 -->
<g id="edge33" class="edge">
<title>32&#45;&gt;33</title>
<path fill="none" stroke="#000000" d="M1891.9421,-94.3048C1891.9421,-85.9126 1891.9421,-76.9946 1891.9421,-68.5382"/>
<polygon fill="#000000" stroke="#000000" points="1895.4422,-68.5186 1891.9421,-58.5186 1888.4422,-68.5187 1895.4422,-68.5186"/>
</g>
<!-- 34 -->
<g id="node35" class="node">
<title>34</title>
<path fill="#e58139" stroke="#000000" d="M2085.8264,-58.6014C2085.8264,-58.6014 1990.0578,-58.6014 1990.0578,-58.6014 1984.0578,-58.6014 1978.0578,-52.6014 1978.0578,-46.6014 1978.0578,-46.6014 1978.0578,-11.7986 1978.0578,-11.7986 1978.0578,-5.7986 1984.0578,.2014 1990.0578,.2014 1990.0578,.2014 2085.8264,.2014 2085.8264,.2014 2091.8264,.2014 2097.8264,-5.7986 2097.8264,-11.7986 2097.8264,-11.7986 2097.8264,-46.6014 2097.8264,-46.6014 2097.8264,-52.6014 2091.8264,-58.6014 2085.8264,-58.6014"/>
<text text-anchor="middle" x="2037.9421" y="-41.8" font-family="Helvetica,sans-Serif" font-size="14.00" fill="#000000">samples = 1.3%</text>
<text text-anchor="middle" x="2037.9421" y="-25" font-family="Helvetica,sans-Serif" font-size="14.00" fill="#000000">value = [1.0, 0.0]</text>
<text text-anchor="middle" x="2037.9421" y="-8.2" font-family="Helvetica,sans-Serif" font-size="14.00" fill="#000000">class = fail</text>
</g>
<!-- 32&#45;&gt;34 -->
<g id="edge34" class="edge">
<title>32&#45;&gt;34</title>
<path fill="none" stroke="#000000" d="M1945.4781,-94.3048C1959.3616,-84.5293 1974.2584,-74.0403 1987.9519,-64.3986"/>
<polygon fill="#000000" stroke="#000000" points="1990.1413,-67.1376 1996.3028,-58.5186 1986.1113,-61.414 1990.1413,-67.1376"/>
</g>
</g>
</svg>
