<?xml version="1.0" encoding="UTF-8" standalone="no"?>
<!DOCTYPE svg PUBLIC "-//W3C//DTD SVG 1.1//EN"
 "http://www.w3.org/Graphics/SVG/1.1/DTD/svg11.dtd">
<!-- Generated by graphviz version 2.40.1 (20161225.0304)
 -->
<!-- Title: Tree Pages: 1 -->
<svg width="2226pt" height="622pt"
 viewBox="0.00 0.00 2225.88 622.40" xmlns="http://www.w3.org/2000/svg" xmlns:xlink="http://www.w3.org/1999/xlink">
<g id="graph0" class="graph" transform="scale(1 1) rotate(0) translate(4 618.4)">
<title>Tree</title>
<polygon fill="#ffffff" stroke="transparent" points="-4,4 -4,-618.4 2221.8842,-618.4 2221.8842,4 -4,4"/>
<!-- 0 -->
<g id="node1" class="node">
<title>0</title>
<path fill="#fcefe5" stroke="#000000" d="M1434.4567,-614.5003C1434.4567,-614.5003 1307.4275,-614.5003 1307.4275,-614.5003 1301.4275,-614.5003 1295.4275,-608.5003 1295.4275,-602.5003 1295.4275,-602.5003 1295.4275,-551.0997 1295.4275,-551.0997 1295.4275,-545.0997 1301.4275,-539.0997 1307.4275,-539.0997 1307.4275,-539.0997 1434.4567,-539.0997 1434.4567,-539.0997 1440.4567,-539.0997 1446.4567,-545.0997 1446.4567,-551.0997 1446.4567,-551.0997 1446.4567,-602.5003 1446.4567,-602.5003 1446.4567,-608.5003 1440.4567,-614.5003 1434.4567,-614.5003"/>
<text text-anchor="middle" x="1370.9421" y="-597.8" font-family="Helvetica,sans-Serif" font-size="14.00" fill="#000000">failures &lt;= 0.5</text>
<text text-anchor="middle" x="1370.9421" y="-581" font-family="Helvetica,sans-Serif" font-size="14.00" fill="#000000">samples = 100.0%</text>
<text text-anchor="middle" x="1370.9421" y="-564.2" font-family="Helvetica,sans-Serif" font-size="14.00" fill="#000000">value = [0.535, 0.465]</text>
<text text-anchor="middle" x="1370.9421" y="-547.4" font-family="Helvetica,sans-Serif" font-size="14.00" fill="#000000">class = fail</text>
</g>
<!-- 1 -->
<g id="node2" class="node">
<title>1</title>
<path fill="#e4f1fb" stroke="#000000" d="M1273.4567,-503.3003C1273.4567,-503.3003 1146.4275,-503.3003 1146.4275,-503.3003 1140.4275,-503.3003 1134.4275,-497.3003 1134.4275,-491.3003 1134.4275,-491.3003 1134.4275,-439.8997 1134.4275,-439.8997 1134.4275,-433.8997 1140.4275,-427.8997 1146.4275,-427.8997 1146.4275,-427.8997 1273.4567,-427.8997 1273.4567,-427.8997 1279.4567,-427.8997 1285.4567,-433.8997 1285.4567,-439.8997 1285.4567,-439.8997 1285.4567,-491.3003 1285.4567,-491.3003 1285.4567,-497.3003 1279.4567,-503.3003 1273.4567,-503.3003"/>
<text text-anchor="middle" x="1209.9421" y="-486.6" font-family="Helvetica,sans-Serif" font-size="14.00" fill="#000000">age &lt;= 17.5</text>
<text text-anchor="middle" x="1209.9421" y="-469.8" font-family="Helvetica,sans-Serif" font-size="14.00" fill="#000000">samples = 81.0%</text>
<text text-anchor="middle" x="1209.9421" y="-453" font-family="Helvetica,sans-Serif" font-size="14.00" fill="#000000">value = [0.463, 0.537]</text>
<text text-anchor="middle" x="1209.9421" y="-436.2" font-family="Helvetica,sans-Serif" font-size="14.00" fill="#000000">class = pass</text>
</g>
<!-- 0&#45;&gt;1 -->
<g id="edge1" class="edge">
<title>0&#45;&gt;1</title>
<path fill="none" stroke="#000000" d="M1316.4348,-539.1528C1302.4033,-529.4614 1287.1914,-518.9548 1272.7747,-508.9974"/>
<polygon fill="#000000" stroke="#000000" points="1274.6105,-506.0117 1264.3932,-503.2085 1270.6323,-511.7714 1274.6105,-506.0117"/>
<text text-anchor="middle" x="1268.8924" y="-523.6003" font-family="Helvetica,sans-Serif" font-size="14.00" fill="#000000">True</text>
</g>
<!-- 26 -->
<g id="node27" class="node">
<title>26</title>
<path fill="#ea995e" stroke="#000000" d="M1587.4567,-503.3003C1587.4567,-503.3003 1460.4275,-503.3003 1460.4275,-503.3003 1454.4275,-503.3003 1448.4275,-497.3003 1448.4275,-491.3003 1448.4275,-491.3003 1448.4275,-439.8997 1448.4275,-439.8997 1448.4275,-433.8997 1454.4275,-427.8997 1460.4275,-427.8997 1460.4275,-427.8997 1587.4567,-427.8997 1587.4567,-427.8997 1593.4567,-427.8997 1599.4567,-433.8997 1599.4567,-439.8997 1599.4567,-439.8997 1599.4567,-491.3003 1599.4567,-491.3003 1599.4567,-497.3003 1593.4567,-503.3003 1587.4567,-503.3003"/>
<text text-anchor="middle" x="1523.9421" y="-486.6" font-family="Helvetica,sans-Serif" font-size="14.00" fill="#000000">absences &lt;= 9.0</text>
<text text-anchor="middle" x="1523.9421" y="-469.8" font-family="Helvetica,sans-Serif" font-size="14.00" fill="#000000">samples = 19.0%</text>
<text text-anchor="middle" x="1523.9421" y="-453" font-family="Helvetica,sans-Serif" font-size="14.00" fill="#000000">value = [0.842, 0.158]</text>
<text text-anchor="middle" x="1523.9421" y="-436.2" font-family="Helvetica,sans-Serif" font-size="14.00" fill="#000000">class = fail</text>
</g>
<!-- 0&#45;&gt;26 -->
<g id="edge26" class="edge">
<title>0&#45;&gt;26</title>
<path fill="none" stroke="#000000" d="M1422.7409,-539.1528C1435.9507,-529.5519 1450.2612,-519.1511 1463.8473,-509.2768"/>
<polygon fill="#000000" stroke="#000000" points="1466.1651,-511.9189 1472.1966,-503.2085 1462.0497,-506.2565 1466.1651,-511.9189"/>
<text text-anchor="middle" x="1468.2899" y="-523.7013" font-family="Helvetica,sans-Serif" font-size="14.00" fill="#000000">False</text>
</g>
<!-- 2 -->
<g id="node3" class="node">
<title>2</title>
<path fill="#c1e1f7" stroke="#000000" d="M682.4567,-392.1003C682.4567,-392.1003 555.4275,-392.1003 555.4275,-392.1003 549.4275,-392.1003 543.4275,-386.1003 543.4275,-380.1003 543.4275,-380.1003 543.4275,-328.6997 543.4275,-328.6997 543.4275,-322.6997 549.4275,-316.6997 555.4275,-316.6997 555.4275,-316.6997 682.4567,-316.6997 682.4567,-316.6997 688.4567,-316.6997 694.4567,-322.6997 694.4567,-328.6997 694.4567,-328.6997 694.4567,-380.1003 694.4567,-380.1003 694.4567,-386.1003 688.4567,-392.1003 682.4567,-392.1003"/>
<text text-anchor="middle" x="618.9421" y="-375.4" font-family="Helvetica,sans-Serif" font-size="14.00" fill="#000000">schoolsup_no &lt;= 0.5</text>
<text text-anchor="middle" x="618.9421" y="-358.6" font-family="Helvetica,sans-Serif" font-size="14.00" fill="#000000">samples = 62.5%</text>
<text text-anchor="middle" x="618.9421" y="-341.8" font-family="Helvetica,sans-Serif" font-size="14.00" fill="#000000">value = [0.408, 0.592]</text>
<text text-anchor="middle" x="618.9421" y="-325" font-family="Helvetica,sans-Serif" font-size="14.00" fill="#000000">class = pass</text>
</g>
<!-- 1&#45;&gt;2 -->
<g id="edge2" class="edge">
<title>1&#45;&gt;2</title>
<path fill="none" stroke="#000000" d="M1134.1904,-451.3469C1024.0256,-430.6188 820.1839,-392.2648 704.6616,-370.5286"/>
<polygon fill="#000000" stroke="#000000" points="705.265,-367.0808 694.7903,-368.6713 703.9706,-373.9601 705.265,-367.0808"/>
</g>
<!-- 15 -->
<g id="node16" class="node">
<title>15</title>
<path fill="#f3c5a4" stroke="#000000" d="M1273.4567,-392.1003C1273.4567,-392.1003 1146.4275,-392.1003 1146.4275,-392.1003 1140.4275,-392.1003 1134.4275,-386.1003 1134.4275,-380.1003 1134.4275,-380.1003 1134.4275,-328.6997 1134.4275,-328.6997 1134.4275,-322.6997 1140.4275,-316.6997 1146.4275,-316.6997 1146.4275,-316.6997 1273.4567,-316.6997 1273.4567,-316.6997 1279.4567,-316.6997 1285.4567,-322.6997 1285.4567,-328.6997 1285.4567,-328.6997 1285.4567,-380.1003 1285.4567,-380.1003 1285.4567,-386.1003 1279.4567,-392.1003 1273.4567,-392.1003"/>
<text text-anchor="middle" x="1209.9421" y="-375.4" font-family="Helvetica,sans-Serif" font-size="14.00" fill="#000000">health &lt;= 2.5</text>
<text text-anchor="middle" x="1209.9421" y="-358.6" font-family="Helvetica,sans-Serif" font-size="14.00" fill="#000000">samples = 18.5%</text>
<text text-anchor="middle" x="1209.9421" y="-341.8" font-family="Helvetica,sans-Serif" font-size="14.00" fill="#000000">value = [0.649, 0.351]</text>
<text text-anchor="middle" x="1209.9421" y="-325" font-family="Helvetica,sans-Serif" font-size="14.00" fill="#000000">class = fail</text>
</g>
<!-- 1&#45;&gt;15 -->
<g id="edge15" class="edge">
<title>1&#45;&gt;15</title>
<path fill="none" stroke="#000000" d="M1209.9421,-427.9528C1209.9421,-419.62 1209.9421,-410.6845 1209.9421,-402.0137"/>
<polygon fill="#000000" stroke="#000000" points="1213.4422,-402.0084 1209.9421,-392.0085 1206.4422,-402.0085 1213.4422,-402.0084"/>
</g>
<!-- 3 -->
<g id="node4" class="node">
<title>3</title>
<path fill="#efb185" stroke="#000000" d="M438.4567,-280.9003C438.4567,-280.9003 311.4275,-280.9003 311.4275,-280.9003 305.4275,-280.9003 299.4275,-274.9003 299.4275,-268.9003 299.4275,-268.9003 299.4275,-217.4997 299.4275,-217.4997 299.4275,-211.4997 305.4275,-205.4997 311.4275,-205.4997 311.4275,-205.4997 438.4567,-205.4997 438.4567,-205.4997 444.4567,-205.4997 450.4567,-211.4997 450.4567,-217.4997 450.4567,-217.4997 450.4567,-268.9003 450.4567,-268.9003 450.4567,-274.9003 444.4567,-280.9003 438.4567,-280.9003"/>
<text text-anchor="middle" x="374.9421" y="-264.2" font-family="Helvetica,sans-Serif" font-size="14.00" fill="#000000">Fjob_services &lt;= 0.5</text>
<text text-anchor="middle" x="374.9421" y="-247.4" font-family="Helvetica,sans-Serif" font-size="14.00" fill="#000000">samples = 9.0%</text>
<text text-anchor="middle" x="374.9421" y="-230.6" font-family="Helvetica,sans-Serif" font-size="14.00" fill="#000000">value = [0.722, 0.278]</text>
<text text-anchor="middle" x="374.9421" y="-213.8" font-family="Helvetica,sans-Serif" font-size="14.00" fill="#000000">class = fail</text>
</g>
<!-- 2&#45;&gt;3 -->
<g id="edge3" class="edge">
<title>2&#45;&gt;3</title>
<path fill="none" stroke="#000000" d="M543.41,-319.9772C516.8774,-307.8853 486.8975,-294.2223 459.6603,-281.8093"/>
<polygon fill="#000000" stroke="#000000" points="461.0884,-278.6138 450.5374,-277.6516 458.1855,-284.9836 461.0884,-278.6138"/>
</g>
<!-- 8 -->
<g id="node9" class="node">
<title>8</title>
<path fill="#a6d3f3" stroke="#000000" d="M682.4567,-280.9003C682.4567,-280.9003 555.4275,-280.9003 555.4275,-280.9003 549.4275,-280.9003 543.4275,-274.9003 543.4275,-268.9003 543.4275,-268.9003 543.4275,-217.4997 543.4275,-217.4997 543.4275,-211.4997 549.4275,-205.4997 555.4275,-205.4997 555.4275,-205.4997 682.4567,-205.4997 682.4567,-205.4997 688.4567,-205.4997 694.4567,-211.4997 694.4567,-217.4997 694.4567,-217.4997 694.4567,-268.9003 694.4567,-268.9003 694.4567,-274.9003 688.4567,-280.9003 682.4567,-280.9003"/>
<text text-anchor="middle" x="618.9421" y="-264.2" font-family="Helvetica,sans-Serif" font-size="14.00" fill="#000000">Mjob_services &lt;= 0.5</text>
<text text-anchor="middle" x="618.9421" y="-247.4" font-family="Helvetica,sans-Serif" font-size="14.00" fill="#000000">samples = 53.5%</text>
<text text-anchor="middle" x="618.9421" y="-230.6" font-family="Helvetica,sans-Serif" font-size="14.00" fill="#000000">value = [0.355, 0.645]</text>
<text text-anchor="middle" x="618.9421" y="-213.8" font-family="Helvetica,sans-Serif" font-size="14.00" fill="#000000">class = pass</text>
</g>
<!-- 2&#45;&gt;8 -->
<g id="edge8" class="edge">
<title>2&#45;&gt;8</title>
<path fill="none" stroke="#000000" d="M618.9421,-316.7528C618.9421,-308.42 618.9421,-299.4845 618.9421,-290.8137"/>
<polygon fill="#000000" stroke="#000000" points="622.4422,-290.8084 618.9421,-280.8085 615.4422,-290.8085 622.4422,-290.8084"/>
</g>
<!-- 4 -->
<g id="node5" class="node">
<title>4</title>
<path fill="#fbeade" stroke="#000000" d="M269.4567,-169.7003C269.4567,-169.7003 142.4275,-169.7003 142.4275,-169.7003 136.4275,-169.7003 130.4275,-163.7003 130.4275,-157.7003 130.4275,-157.7003 130.4275,-106.2997 130.4275,-106.2997 130.4275,-100.2997 136.4275,-94.2997 142.4275,-94.2997 142.4275,-94.2997 269.4567,-94.2997 269.4567,-94.2997 275.4567,-94.2997 281.4567,-100.2997 281.4567,-106.2997 281.4567,-106.2997 281.4567,-157.7003 281.4567,-157.7003 281.4567,-163.7003 275.4567,-169.7003 269.4567,-169.7003"/>
<text text-anchor="middle" x="205.9421" y="-153" font-family="Helvetica,sans-Serif" font-size="14.00" fill="#000000">address_U &lt;= 0.5</text>
<text text-anchor="middle" x="205.9421" y="-136.2" font-family="Helvetica,sans-Serif" font-size="14.00" fill="#000000">samples = 5.5%</text>
<text text-anchor="middle" x="205.9421" y="-119.4" font-family="Helvetica,sans-Serif" font-size="14.00" fill="#000000">value = [0.545, 0.455]</text>
<text text-anchor="middle" x="205.9421" y="-102.6" font-family="Helvetica,sans-Serif" font-size="14.00" fill="#000000">class = fail</text>
</g>
<!-- 3&#45;&gt;4 -->
<g id="edge4" class="edge">
<title>3&#45;&gt;4</title>
<path fill="none" stroke="#000000" d="M317.7264,-205.5528C302.8599,-195.7708 286.7313,-185.1583 271.4728,-175.1184"/>
<polygon fill="#000000" stroke="#000000" points="273.3766,-172.1814 263.0989,-169.6085 269.5288,-178.0291 273.3766,-172.1814"/>
</g>
<!-- 7 -->
<g id="node8" class="node">
<title>7</title>
<path fill="#e58139" stroke="#000000" d="M422.8264,-161.4014C422.8264,-161.4014 327.0578,-161.4014 327.0578,-161.4014 321.0578,-161.4014 315.0578,-155.4014 315.0578,-149.4014 315.0578,-149.4014 315.0578,-114.5986 315.0578,-114.5986 315.0578,-108.5986 321.0578,-102.5986 327.0578,-102.5986 327.0578,-102.5986 422.8264,-102.5986 422.8264,-102.5986 428.8264,-102.5986 434.8264,-108.5986 434.8264,-114.5986 434.8264,-114.5986 434.8264,-149.4014 434.8264,-149.4014 434.8264,-155.4014 428.8264,-161.4014 422.8264,-161.4014"/>
<text text-anchor="middle" x="374.9421" y="-144.6" font-family="Helvetica,sans-Serif" font-size="14.00" fill="#000000">samples = 3.5%</text>
<text text-anchor="middle" x="374.9421" y="-127.8" font-family="Helvetica,sans-Serif" font-size="14.00" fill="#000000">value = [1.0, 0.0]</text>
<text text-anchor="middle" x="374.9421" y="-111" font-family="Helvetica,sans-Serif" font-size="14.00" fill="#000000">class = fail</text>
</g>
<!-- 3&#45;&gt;7 -->
<g id="edge7" class="edge">
<title>3&#45;&gt;7</title>
<path fill="none" stroke="#000000" d="M374.9421,-205.5528C374.9421,-194.6662 374.9421,-182.751 374.9421,-171.7411"/>
<polygon fill="#000000" stroke="#000000" points="378.4422,-171.5258 374.9421,-161.5258 371.4422,-171.5259 378.4422,-171.5258"/>
</g>
<!-- 5 -->
<g id="node6" class="node">
<title>5</title>
<path fill="#399de5" stroke="#000000" d="M107.8264,-58.6014C107.8264,-58.6014 12.0578,-58.6014 12.0578,-58.6014 6.0578,-58.6014 .0578,-52.6014 .0578,-46.6014 .0578,-46.6014 .0578,-11.7986 .0578,-11.7986 .0578,-5.7986 6.0578,.2014 12.0578,.2014 12.0578,.2014 107.8264,.2014 107.8264,.2014 113.8264,.2014 119.8264,-5.7986 119.8264,-11.7986 119.8264,-11.7986 119.8264,-46.6014 119.8264,-46.6014 119.8264,-52.6014 113.8264,-58.6014 107.8264,-58.6014"/>
<text text-anchor="middle" x="59.9421" y="-41.8" font-family="Helvetica,sans-Serif" font-size="14.00" fill="#000000">samples = 1.5%</text>
<text text-anchor="middle" x="59.9421" y="-25" font-family="Helvetica,sans-Serif" font-size="14.00" fill="#000000">value = [0.0, 1.0]</text>
<text text-anchor="middle" x="59.9421" y="-8.2" font-family="Helvetica,sans-Serif" font-size="14.00" fill="#000000">class = pass</text>
</g>
<!-- 4&#45;&gt;5 -->
<g id="edge5" class="edge">
<title>4&#45;&gt;5</title>
<path fill="none" stroke="#000000" d="M152.4061,-94.3048C138.5226,-84.5293 123.6258,-74.0403 109.9323,-64.3986"/>
<polygon fill="#000000" stroke="#000000" points="111.7729,-61.414 101.5814,-58.5186 107.7429,-67.1376 111.7729,-61.414"/>
</g>
<!-- 6 -->
<g id="node7" class="node">
<title>6</title>
<path fill="#eeab7b" stroke="#000000" d="M261.8922,-58.6014C261.8922,-58.6014 149.992,-58.6014 149.992,-58.6014 143.992,-58.6014 137.992,-52.6014 137.992,-46.6014 137.992,-46.6014 137.992,-11.7986 137.992,-11.7986 137.992,-5.7986 143.992,.2014 149.992,.2014 149.992,.2014 261.8922,.2014 261.8922,.2014 267.8922,.2014 273.8922,-5.7986 273.8922,-11.7986 273.8922,-11.7986 273.8922,-46.6014 273.8922,-46.6014 273.8922,-52.6014 267.8922,-58.6014 261.8922,-58.6014"/>
<text text-anchor="middle" x="205.9421" y="-41.8" font-family="Helvetica,sans-Serif" font-size="14.00" fill="#000000">samples = 4.0%</text>
<text text-anchor="middle" x="205.9421" y="-25" font-family="Helvetica,sans-Serif" font-size="14.00" fill="#000000">value = [0.75, 0.25]</text>
<text text-anchor="middle" x="205.9421" y="-8.2" font-family="Helvetica,sans-Serif" font-size="14.00" fill="#000000">class = fail</text>
</g>
<!-- 4&#45;&gt;6 -->
<g id="edge6" class="edge">
<title>4&#45;&gt;6</title>
<path fill="none" stroke="#000000" d="M205.9421,-94.3048C205.9421,-85.9126 205.9421,-76.9946 205.9421,-68.5382"/>
<polygon fill="#000000" stroke="#000000" points="209.4422,-68.5186 205.9421,-58.5186 202.4422,-68.5187 209.4422,-68.5186"/>
</g>
<!-- 9 -->
<g id="node10" class="node">
<title>9</title>
<path fill="#c2e1f7" stroke="#000000" d="M587.771,-169.7003C587.771,-169.7003 476.1132,-169.7003 476.1132,-169.7003 470.1132,-169.7003 464.1132,-163.7003 464.1132,-157.7003 464.1132,-157.7003 464.1132,-106.2997 464.1132,-106.2997 464.1132,-100.2997 470.1132,-94.2997 476.1132,-94.2997 476.1132,-94.2997 587.771,-94.2997 587.771,-94.2997 593.771,-94.2997 599.771,-100.2997 599.771,-106.2997 599.771,-106.2997 599.771,-157.7003 599.771,-157.7003 599.771,-163.7003 593.771,-169.7003 587.771,-169.7003"/>
<text text-anchor="middle" x="531.9421" y="-153" font-family="Helvetica,sans-Serif" font-size="14.00" fill="#000000">Mjob_health &lt;= 0.5</text>
<text text-anchor="middle" x="531.9421" y="-136.2" font-family="Helvetica,sans-Serif" font-size="14.00" fill="#000000">samples = 41.5%</text>
<text text-anchor="middle" x="531.9421" y="-119.4" font-family="Helvetica,sans-Serif" font-size="14.00" fill="#000000">value = [0.41, 0.59]</text>
<text text-anchor="middle" x="531.9421" y="-102.6" font-family="Helvetica,sans-Serif" font-size="14.00" fill="#000000">class = pass</text>
</g>
<!-- 8&#45;&gt;9 -->
<g id="edge9" class="edge">
<title>8&#45;&gt;9</title>
<path fill="none" stroke="#000000" d="M589.4879,-205.5528C582.4725,-196.586 574.9111,-186.9213 567.6493,-177.6395"/>
<polygon fill="#000000" stroke="#000000" points="570.2846,-175.3278 561.366,-169.6085 564.7714,-179.6411 570.2846,-175.3278"/>
</g>
<!-- 12 -->
<g id="node13" class="node">
<title>12</title>
<path fill="#61b1ea" stroke="#000000" d="M756.4567,-169.7003C756.4567,-169.7003 629.4275,-169.7003 629.4275,-169.7003 623.4275,-169.7003 617.4275,-163.7003 617.4275,-157.7003 617.4275,-157.7003 617.4275,-106.2997 617.4275,-106.2997 617.4275,-100.2997 623.4275,-94.2997 629.4275,-94.2997 629.4275,-94.2997 756.4567,-94.2997 756.4567,-94.2997 762.4567,-94.2997 768.4567,-100.2997 768.4567,-106.2997 768.4567,-106.2997 768.4567,-157.7003 768.4567,-157.7003 768.4567,-163.7003 762.4567,-169.7003 756.4567,-169.7003"/>
<text text-anchor="middle" x="692.9421" y="-153" font-family="Helvetica,sans-Serif" font-size="14.00" fill="#000000">sex_F &lt;= 0.5</text>
<text text-anchor="middle" x="692.9421" y="-136.2" font-family="Helvetica,sans-Serif" font-size="14.00" fill="#000000">samples = 12.0%</text>
<text text-anchor="middle" x="692.9421" y="-119.4" font-family="Helvetica,sans-Serif" font-size="14.00" fill="#000000">value = [0.167, 0.833]</text>
<text text-anchor="middle" x="692.9421" y="-102.6" font-family="Helvetica,sans-Serif" font-size="14.00" fill="#000000">class = pass</text>
</g>
<!-- 8&#45;&gt;12 -->
<g id="edge12" class="edge">
<title>8&#45;&gt;12</title>
<path fill="none" stroke="#000000" d="M643.9951,-205.5528C649.8417,-196.7671 656.1341,-187.3115 662.1958,-178.2025"/>
<polygon fill="#000000" stroke="#000000" points="665.2885,-179.8726 667.9149,-169.6085 659.4609,-175.9946 665.2885,-179.8726"/>
</g>
<!-- 10 -->
<g id="node11" class="node">
<title>10</title>
<path fill="#e0f0fb" stroke="#000000" d="M430.4567,-58.6014C430.4567,-58.6014 303.4275,-58.6014 303.4275,-58.6014 297.4275,-58.6014 291.4275,-52.6014 291.4275,-46.6014 291.4275,-46.6014 291.4275,-11.7986 291.4275,-11.7986 291.4275,-5.7986 297.4275,.2014 303.4275,.2014 303.4275,.2014 430.4567,.2014 430.4567,.2014 436.4567,.2014 442.4567,-5.7986 442.4567,-11.7986 442.4567,-11.7986 442.4567,-46.6014 442.4567,-46.6014 442.4567,-52.6014 436.4567,-58.6014 430.4567,-58.6014"/>
<text text-anchor="middle" x="366.9421" y="-41.8" font-family="Helvetica,sans-Serif" font-size="14.00" fill="#000000">samples = 35.0%</text>
<text text-anchor="middle" x="366.9421" y="-25" font-family="Helvetica,sans-Serif" font-size="14.00" fill="#000000">value = [0.457, 0.543]</text>
<text text-anchor="middle" x="366.9421" y="-8.2" font-family="Helvetica,sans-Serif" font-size="14.00" fill="#000000">class = pass</text>
</g>
<!-- 9&#45;&gt;10 -->
<g id="edge10" class="edge">
<title>9&#45;&gt;10</title>
<path fill="none" stroke="#000000" d="M471.4391,-94.3048C455.4528,-84.3448 438.2777,-73.6442 422.5633,-63.8537"/>
<polygon fill="#000000" stroke="#000000" points="424.3385,-60.836 414.0002,-58.5186 420.6369,-66.7773 424.3385,-60.836"/>
</g>
<!-- 11 -->
<g id="node12" class="node">
<title>11</title>
<path fill="#5dafea" stroke="#000000" d="M599.4567,-58.6014C599.4567,-58.6014 472.4275,-58.6014 472.4275,-58.6014 466.4275,-58.6014 460.4275,-52.6014 460.4275,-46.6014 460.4275,-46.6014 460.4275,-11.7986 460.4275,-11.7986 460.4275,-5.7986 466.4275,.2014 472.4275,.2014 472.4275,.2014 599.4567,.2014 599.4567,.2014 605.4567,.2014 611.4567,-5.7986 611.4567,-11.7986 611.4567,-11.7986 611.4567,-46.6014 611.4567,-46.6014 611.4567,-52.6014 605.4567,-58.6014 599.4567,-58.6014"/>
<text text-anchor="middle" x="535.9421" y="-41.8" font-family="Helvetica,sans-Serif" font-size="14.00" fill="#000000">samples = 6.5%</text>
<text text-anchor="middle" x="535.9421" y="-25" font-family="Helvetica,sans-Serif" font-size="14.00" fill="#000000">value = [0.154, 0.846]</text>
<text text-anchor="middle" x="535.9421" y="-8.2" font-family="Helvetica,sans-Serif" font-size="14.00" fill="#000000">class = pass</text>
</g>
<!-- 9&#45;&gt;11 -->
<g id="edge11" class="edge">
<title>9&#45;&gt;11</title>
<path fill="none" stroke="#000000" d="M533.4088,-94.3048C533.7354,-85.9126 534.0824,-76.9946 534.4114,-68.5382"/>
<polygon fill="#000000" stroke="#000000" points="537.9097,-68.6472 534.8013,-58.5186 530.915,-68.375 537.9097,-68.6472"/>
</g>
<!-- 13 -->
<g id="node14" class="node">
<title>13</title>
<path fill="#399de5" stroke="#000000" d="M736.8264,-58.6014C736.8264,-58.6014 641.0578,-58.6014 641.0578,-58.6014 635.0578,-58.6014 629.0578,-52.6014 629.0578,-46.6014 629.0578,-46.6014 629.0578,-11.7986 629.0578,-11.7986 629.0578,-5.7986 635.0578,.2014 641.0578,.2014 641.0578,.2014 736.8264,.2014 736.8264,.2014 742.8264,.2014 748.8264,-5.7986 748.8264,-11.7986 748.8264,-11.7986 748.8264,-46.6014 748.8264,-46.6014 748.8264,-52.6014 742.8264,-58.6014 736.8264,-58.6014"/>
<text text-anchor="middle" x="688.9421" y="-41.8" font-family="Helvetica,sans-Serif" font-size="14.00" fill="#000000">samples = 6.0%</text>
<text text-anchor="middle" x="688.9421" y="-25" font-family="Helvetica,sans-Serif" font-size="14.00" fill="#000000">value = [0.0, 1.0]</text>
<text text-anchor="middle" x="688.9421" y="-8.2" font-family="Helvetica,sans-Serif" font-size="14.00" fill="#000000">class = pass</text>
</g>
<!-- 12&#45;&gt;13 -->
<g id="edge13" class="edge">
<title>12&#45;&gt;13</title>
<path fill="none" stroke="#000000" d="M691.4754,-94.3048C691.1488,-85.9126 690.8018,-76.9946 690.4728,-68.5382"/>
<polygon fill="#000000" stroke="#000000" points="693.9692,-68.375 690.0829,-58.5186 686.9745,-68.6472 693.9692,-68.375"/>
</g>
<!-- 14 -->
<g id="node15" class="node">
<title>14</title>
<path fill="#9ccef2" stroke="#000000" d="M905.4567,-58.6014C905.4567,-58.6014 778.4275,-58.6014 778.4275,-58.6014 772.4275,-58.6014 766.4275,-52.6014 766.4275,-46.6014 766.4275,-46.6014 766.4275,-11.7986 766.4275,-11.7986 766.4275,-5.7986 772.4275,.2014 778.4275,.2014 778.4275,.2014 905.4567,.2014 905.4567,.2014 911.4567,.2014 917.4567,-5.7986 917.4567,-11.7986 917.4567,-11.7986 917.4567,-46.6014 917.4567,-46.6014 917.4567,-52.6014 911.4567,-58.6014 905.4567,-58.6014"/>
<text text-anchor="middle" x="841.9421" y="-41.8" font-family="Helvetica,sans-Serif" font-size="14.00" fill="#000000">samples = 6.0%</text>
<text text-anchor="middle" x="841.9421" y="-25" font-family="Helvetica,sans-Serif" font-size="14.00" fill="#000000">value = [0.333, 0.667]</text>
<text text-anchor="middle" x="841.9421" y="-8.2" font-family="Helvetica,sans-Serif" font-size="14.00" fill="#000000">class = pass</text>
</g>
<!-- 12&#45;&gt;14 -->
<g id="edge14" class="edge">
<title>12&#45;&gt;14</title>
<path fill="none" stroke="#000000" d="M747.5781,-94.3048C761.7469,-84.5293 776.9498,-74.0403 790.9247,-64.3986"/>
<polygon fill="#000000" stroke="#000000" points="793.2037,-67.0784 799.4472,-58.5186 789.2285,-61.3167 793.2037,-67.0784"/>
</g>
<!-- 16 -->
<g id="node17" class="node">
<title>16</title>
<path fill="#cee6f8" stroke="#000000" d="M1197.6729,-280.9003C1197.6729,-280.9003 1068.2113,-280.9003 1068.2113,-280.9003 1062.2113,-280.9003 1056.2113,-274.9003 1056.2113,-268.9003 1056.2113,-268.9003 1056.2113,-217.4997 1056.2113,-217.4997 1056.2113,-211.4997 1062.2113,-205.4997 1068.2113,-205.4997 1068.2113,-205.4997 1197.6729,-205.4997 1197.6729,-205.4997 1203.6729,-205.4997 1209.6729,-211.4997 1209.6729,-217.4997 1209.6729,-217.4997 1209.6729,-268.9003 1209.6729,-268.9003 1209.6729,-274.9003 1203.6729,-280.9003 1197.6729,-280.9003"/>
<text text-anchor="middle" x="1132.9421" y="-264.2" font-family="Helvetica,sans-Serif" font-size="14.00" fill="#000000">guardian_other &lt;= 0.5</text>
<text text-anchor="middle" x="1132.9421" y="-247.4" font-family="Helvetica,sans-Serif" font-size="14.00" fill="#000000">samples = 7.0%</text>
<text text-anchor="middle" x="1132.9421" y="-230.6" font-family="Helvetica,sans-Serif" font-size="14.00" fill="#000000">value = [0.429, 0.571]</text>
<text text-anchor="middle" x="1132.9421" y="-213.8" font-family="Helvetica,sans-Serif" font-size="14.00" fill="#000000">class = pass</text>
</g>
<!-- 15&#45;&gt;16 -->
<g id="edge16" class="edge">
<title>15&#45;&gt;16</title>
<path fill="none" stroke="#000000" d="M1183.8734,-316.7528C1177.7271,-307.8765 1171.1073,-298.3165 1164.7398,-289.1209"/>
<polygon fill="#000000" stroke="#000000" points="1167.5543,-287.0374 1158.9839,-280.8085 1161.7994,-291.0224 1167.5543,-287.0374"/>
</g>
<!-- 21 -->
<g id="node22" class="node">
<title>21</title>
<path fill="#eca470" stroke="#000000" d="M1366.4567,-280.9003C1366.4567,-280.9003 1239.4275,-280.9003 1239.4275,-280.9003 1233.4275,-280.9003 1227.4275,-274.9003 1227.4275,-268.9003 1227.4275,-268.9003 1227.4275,-217.4997 1227.4275,-217.4997 1227.4275,-211.4997 1233.4275,-205.4997 1239.4275,-205.4997 1239.4275,-205.4997 1366.4567,-205.4997 1366.4567,-205.4997 1372.4567,-205.4997 1378.4567,-211.4997 1378.4567,-217.4997 1378.4567,-217.4997 1378.4567,-268.9003 1378.4567,-268.9003 1378.4567,-274.9003 1372.4567,-280.9003 1366.4567,-280.9003"/>
<text text-anchor="middle" x="1302.9421" y="-264.2" font-family="Helvetica,sans-Serif" font-size="14.00" fill="#000000">Fjob_other &lt;= 0.5</text>
<text text-anchor="middle" x="1302.9421" y="-247.4" font-family="Helvetica,sans-Serif" font-size="14.00" fill="#000000">samples = 11.5%</text>
<text text-anchor="middle" x="1302.9421" y="-230.6" font-family="Helvetica,sans-Serif" font-size="14.00" fill="#000000">value = [0.783, 0.217]</text>
<text text-anchor="middle" x="1302.9421" y="-213.8" font-family="Helvetica,sans-Serif" font-size="14.00" fill="#000000">class = fail</text>
</g>
<!-- 15&#45;&gt;21 -->
<g id="edge21" class="edge">
<title>15&#45;&gt;21</title>
<path fill="none" stroke="#000000" d="M1241.4277,-316.7528C1249.0026,-307.6954 1257.1731,-297.926 1265.0075,-288.5584"/>
<polygon fill="#000000" stroke="#000000" points="1267.7583,-290.7248 1271.489,-280.8085 1262.3887,-286.234 1267.7583,-290.7248"/>
</g>
<!-- 17 -->
<g id="node18" class="node">
<title>17</title>
<path fill="#83c2ef" stroke="#000000" d="M1075.1104,-169.7003C1075.1104,-169.7003 946.7738,-169.7003 946.7738,-169.7003 940.7738,-169.7003 934.7738,-163.7003 934.7738,-157.7003 934.7738,-157.7003 934.7738,-106.2997 934.7738,-106.2997 934.7738,-100.2997 940.7738,-94.2997 946.7738,-94.2997 946.7738,-94.2997 1075.1104,-94.2997 1075.1104,-94.2997 1081.1104,-94.2997 1087.1104,-100.2997 1087.1104,-106.2997 1087.1104,-106.2997 1087.1104,-157.7003 1087.1104,-157.7003 1087.1104,-163.7003 1081.1104,-169.7003 1075.1104,-169.7003"/>
<text text-anchor="middle" x="1010.9421" y="-153" font-family="Helvetica,sans-Serif" font-size="14.00" fill="#000000">reason_course &lt;= 0.5</text>
<text text-anchor="middle" x="1010.9421" y="-136.2" font-family="Helvetica,sans-Serif" font-size="14.00" fill="#000000">samples = 5.5%</text>
<text text-anchor="middle" x="1010.9421" y="-119.4" font-family="Helvetica,sans-Serif" font-size="14.00" fill="#000000">value = [0.273, 0.727]</text>
<text text-anchor="middle" x="1010.9421" y="-102.6" font-family="Helvetica,sans-Serif" font-size="14.00" fill="#000000">class = pass</text>
</g>
<!-- 16&#45;&gt;17 -->
<g id="edge17" class="edge">
<title>16&#45;&gt;17</title>
<path fill="none" stroke="#000000" d="M1091.6385,-205.5528C1081.4033,-196.2237 1070.3394,-186.1392 1059.782,-176.5164"/>
<polygon fill="#000000" stroke="#000000" points="1061.9516,-173.7582 1052.2032,-169.6085 1057.2361,-178.9316 1061.9516,-173.7582"/>
</g>
<!-- 20 -->
<g id="node21" class="node">
<title>20</title>
<path fill="#e58139" stroke="#000000" d="M1212.8264,-161.4014C1212.8264,-161.4014 1117.0578,-161.4014 1117.0578,-161.4014 1111.0578,-161.4014 1105.0578,-155.4014 1105.0578,-149.4014 1105.0578,-149.4014 1105.0578,-114.5986 1105.0578,-114.5986 1105.0578,-108.5986 1111.0578,-102.5986 1117.0578,-102.5986 1117.0578,-102.5986 1212.8264,-102.5986 1212.8264,-102.5986 1218.8264,-102.5986 1224.8264,-108.5986 1224.8264,-114.5986 1224.8264,-114.5986 1224.8264,-149.4014 1224.8264,-149.4014 1224.8264,-155.4014 1218.8264,-161.4014 1212.8264,-161.4014"/>
<text text-anchor="middle" x="1164.9421" y="-144.6" font-family="Helvetica,sans-Serif" font-size="14.00" fill="#000000">samples = 1.5%</text>
<text text-anchor="middle" x="1164.9421" y="-127.8" font-family="Helvetica,sans-Serif" font-size="14.00" fill="#000000">value = [1.0, 0.0]</text>
<text text-anchor="middle" x="1164.9421" y="-111" font-family="Helvetica,sans-Serif" font-size="14.00" fill="#000000">class = fail</text>
</g>
<!-- 16&#45;&gt;20 -->
<g id="edge20" class="edge">
<title>16&#45;&gt;20</title>
<path fill="none" stroke="#000000" d="M1143.7758,-205.5528C1146.941,-194.554 1150.4082,-182.5052 1153.6037,-171.4009"/>
<polygon fill="#000000" stroke="#000000" points="1157.0434,-172.1038 1156.4455,-161.5258 1150.3164,-170.1679 1157.0434,-172.1038"/>
</g>
<!-- 18 -->
<g id="node19" class="node">
<title>18</title>
<path fill="#52a9e8" stroke="#000000" d="M1074.4567,-58.6014C1074.4567,-58.6014 947.4275,-58.6014 947.4275,-58.6014 941.4275,-58.6014 935.4275,-52.6014 935.4275,-46.6014 935.4275,-46.6014 935.4275,-11.7986 935.4275,-11.7986 935.4275,-5.7986 941.4275,.2014 947.4275,.2014 947.4275,.2014 1074.4567,.2014 1074.4567,.2014 1080.4567,.2014 1086.4567,-5.7986 1086.4567,-11.7986 1086.4567,-11.7986 1086.4567,-46.6014 1086.4567,-46.6014 1086.4567,-52.6014 1080.4567,-58.6014 1074.4567,-58.6014"/>
<text text-anchor="middle" x="1010.9421" y="-41.8" font-family="Helvetica,sans-Serif" font-size="14.00" fill="#000000">samples = 4.5%</text>
<text text-anchor="middle" x="1010.9421" y="-25" font-family="Helvetica,sans-Serif" font-size="14.00" fill="#000000">value = [0.111, 0.889]</text>
<text text-anchor="middle" x="1010.9421" y="-8.2" font-family="Helvetica,sans-Serif" font-size="14.00" fill="#000000">class = pass</text>
</g>
<!-- 17&#45;&gt;18 -->
<g id="edge18" class="edge">
<title>17&#45;&gt;18</title>
<path fill="none" stroke="#000000" d="M1010.9421,-94.3048C1010.9421,-85.9126 1010.9421,-76.9946 1010.9421,-68.5382"/>
<polygon fill="#000000" stroke="#000000" points="1014.4422,-68.5186 1010.9421,-58.5186 1007.4422,-68.5187 1014.4422,-68.5186"/>
</g>
<!-- 19 -->
<g id="node20" class="node">
<title>19</title>
<path fill="#e58139" stroke="#000000" d="M1211.8264,-58.6014C1211.8264,-58.6014 1116.0578,-58.6014 1116.0578,-58.6014 1110.0578,-58.6014 1104.0578,-52.6014 1104.0578,-46.6014 1104.0578,-46.6014 1104.0578,-11.7986 1104.0578,-11.7986 1104.0578,-5.7986 1110.0578,.2014 1116.0578,.2014 1116.0578,.2014 1211.8264,.2014 1211.8264,.2014 1217.8264,.2014 1223.8264,-5.7986 1223.8264,-11.7986 1223.8264,-11.7986 1223.8264,-46.6014 1223.8264,-46.6014 1223.8264,-52.6014 1217.8264,-58.6014 1211.8264,-58.6014"/>
<text text-anchor="middle" x="1163.9421" y="-41.8" font-family="Helvetica,sans-Serif" font-size="14.00" fill="#000000">samples = 1.0%</text>
<text text-anchor="middle" x="1163.9421" y="-25" font-family="Helvetica,sans-Serif" font-size="14.00" fill="#000000">value = [1.0, 0.0]</text>
<text text-anchor="middle" x="1163.9421" y="-8.2" font-family="Helvetica,sans-Serif" font-size="14.00" fill="#000000">class = fail</text>
</g>
<!-- 17&#45;&gt;19 -->
<g id="edge19" class="edge">
<title>17&#45;&gt;19</title>
<path fill="none" stroke="#000000" d="M1067.0449,-94.3048C1081.7313,-84.4371 1097.4997,-73.8423 1111.9609,-64.1259"/>
<polygon fill="#000000" stroke="#000000" points="1113.9579,-67.0008 1120.3064,-58.5186 1110.054,-61.1905 1113.9579,-67.0008"/>
</g>
<!-- 22 -->
<g id="node23" class="node">
<title>22</title>
<path fill="#e58139" stroke="#000000" d="M1350.8264,-161.4014C1350.8264,-161.4014 1255.0578,-161.4014 1255.0578,-161.4014 1249.0578,-161.4014 1243.0578,-155.4014 1243.0578,-149.4014 1243.0578,-149.4014 1243.0578,-114.5986 1243.0578,-114.5986 1243.0578,-108.5986 1249.0578,-102.5986 1255.0578,-102.5986 1255.0578,-102.5986 1350.8264,-102.5986 1350.8264,-102.5986 1356.8264,-102.5986 1362.8264,-108.5986 1362.8264,-114.5986 1362.8264,-114.5986 1362.8264,-149.4014 1362.8264,-149.4014 1362.8264,-155.4014 1356.8264,-161.4014 1350.8264,-161.4014"/>
<text text-anchor="middle" x="1302.9421" y="-144.6" font-family="Helvetica,sans-Serif" font-size="14.00" fill="#000000">samples = 4.0%</text>
<text text-anchor="middle" x="1302.9421" y="-127.8" font-family="Helvetica,sans-Serif" font-size="14.00" fill="#000000">value = [1.0, 0.0]</text>
<text text-anchor="middle" x="1302.9421" y="-111" font-family="Helvetica,sans-Serif" font-size="14.00" fill="#000000">class = fail</text>
</g>
<!-- 21&#45;&gt;22 -->
<g id="edge22" class="edge">
<title>21&#45;&gt;22</title>
<path fill="none" stroke="#000000" d="M1302.9421,-205.5528C1302.9421,-194.6662 1302.9421,-182.751 1302.9421,-171.7411"/>
<polygon fill="#000000" stroke="#000000" points="1306.4422,-171.5258 1302.9421,-161.5258 1299.4422,-171.5259 1306.4422,-171.5258"/>
</g>
<!-- 23 -->
<g id="node24" class="node">
<title>23</title>
<path fill="#f2c09c" stroke="#000000" d="M1519.4567,-169.7003C1519.4567,-169.7003 1392.4275,-169.7003 1392.4275,-169.7003 1386.4275,-169.7003 1380.4275,-163.7003 1380.4275,-157.7003 1380.4275,-157.7003 1380.4275,-106.2997 1380.4275,-106.2997 1380.4275,-100.2997 1386.4275,-94.2997 1392.4275,-94.2997 1392.4275,-94.2997 1519.4567,-94.2997 1519.4567,-94.2997 1525.4567,-94.2997 1531.4567,-100.2997 1531.4567,-106.2997 1531.4567,-106.2997 1531.4567,-157.7003 1531.4567,-157.7003 1531.4567,-163.7003 1525.4567,-169.7003 1519.4567,-169.7003"/>
<text text-anchor="middle" x="1455.9421" y="-153" font-family="Helvetica,sans-Serif" font-size="14.00" fill="#000000">Dalc &lt;= 1.5</text>
<text text-anchor="middle" x="1455.9421" y="-136.2" font-family="Helvetica,sans-Serif" font-size="14.00" fill="#000000">samples = 7.5%</text>
<text text-anchor="middle" x="1455.9421" y="-119.4" font-family="Helvetica,sans-Serif" font-size="14.00" fill="#000000">value = [0.667, 0.333]</text>
<text text-anchor="middle" x="1455.9421" y="-102.6" font-family="Helvetica,sans-Serif" font-size="14.00" fill="#000000">class = fail</text>
</g>
<!-- 21&#45;&gt;23 -->
<g id="edge23" class="edge">
<title>21&#45;&gt;23</title>
<path fill="none" stroke="#000000" d="M1354.7409,-205.5528C1367.9507,-195.9519 1382.2612,-185.5511 1395.8473,-175.6768"/>
<polygon fill="#000000" stroke="#000000" points="1398.1651,-178.3189 1404.1966,-169.6085 1394.0497,-172.6565 1398.1651,-178.3189"/>
</g>
<!-- 24 -->
<g id="node25" class="node">
<title>24</title>
<path fill="#ffffff" stroke="#000000" d="M1434.8264,-58.6014C1434.8264,-58.6014 1339.0578,-58.6014 1339.0578,-58.6014 1333.0578,-58.6014 1327.0578,-52.6014 1327.0578,-46.6014 1327.0578,-46.6014 1327.0578,-11.7986 1327.0578,-11.7986 1327.0578,-5.7986 1333.0578,.2014 1339.0578,.2014 1339.0578,.2014 1434.8264,.2014 1434.8264,.2014 1440.8264,.2014 1446.8264,-5.7986 1446.8264,-11.7986 1446.8264,-11.7986 1446.8264,-46.6014 1446.8264,-46.6014 1446.8264,-52.6014 1440.8264,-58.6014 1434.8264,-58.6014"/>
<text text-anchor="middle" x="1386.9421" y="-41.8" font-family="Helvetica,sans-Serif" font-size="14.00" fill="#000000">samples = 5.0%</text>
<text text-anchor="middle" x="1386.9421" y="-25" font-family="Helvetica,sans-Serif" font-size="14.00" fill="#000000">value = [0.5, 0.5]</text>
<text text-anchor="middle" x="1386.9421" y="-8.2" font-family="Helvetica,sans-Serif" font-size="14.00" fill="#000000">class = fail</text>
</g>
<!-- 23&#45;&gt;24 -->
<g id="edge24" class="edge">
<title>23&#45;&gt;24</title>
<path fill="none" stroke="#000000" d="M1430.6408,-94.3048C1424.6366,-85.3593 1418.2313,-75.8163 1412.2277,-66.8718"/>
<polygon fill="#000000" stroke="#000000" points="1415.1001,-64.8711 1406.6209,-58.5186 1409.288,-68.7723 1415.1001,-64.8711"/>
</g>
<!-- 25 -->
<g id="node26" class="node">
<title>25</title>
<path fill="#e58139" stroke="#000000" d="M1572.8264,-58.6014C1572.8264,-58.6014 1477.0578,-58.6014 1477.0578,-58.6014 1471.0578,-58.6014 1465.0578,-52.6014 1465.0578,-46.6014 1465.0578,-46.6014 1465.0578,-11.7986 1465.0578,-11.7986 1465.0578,-5.7986 1471.0578,.2014 1477.0578,.2014 1477.0578,.2014 1572.8264,.2014 1572.8264,.2014 1578.8264,.2014 1584.8264,-5.7986 1584.8264,-11.7986 1584.8264,-11.7986 1584.8264,-46.6014 1584.8264,-46.6014 1584.8264,-52.6014 1578.8264,-58.6014 1572.8264,-58.6014"/>
<text text-anchor="middle" x="1524.9421" y="-41.8" font-family="Helvetica,sans-Serif" font-size="14.00" fill="#000000">samples = 2.5%</text>
<text text-anchor="middle" x="1524.9421" y="-25" font-family="Helvetica,sans-Serif" font-size="14.00" fill="#000000">value = [1.0, 0.0]</text>
<text text-anchor="middle" x="1524.9421" y="-8.2" font-family="Helvetica,sans-Serif" font-size="14.00" fill="#000000">class = fail</text>
</g>
<!-- 23&#45;&gt;25 -->
<g id="edge25" class="edge">
<title>23&#45;&gt;25</title>
<path fill="none" stroke="#000000" d="M1481.2434,-94.3048C1487.2476,-85.3593 1493.6529,-75.8163 1499.6565,-66.8718"/>
<polygon fill="#000000" stroke="#000000" points="1502.5962,-68.7723 1505.2633,-58.5186 1496.7841,-64.8711 1502.5962,-68.7723"/>
</g>
<!-- 27 -->
<g id="node28" class="node">
<title>27</title>
<path fill="#e68742" stroke="#000000" d="M1587.4567,-392.1003C1587.4567,-392.1003 1460.4275,-392.1003 1460.4275,-392.1003 1454.4275,-392.1003 1448.4275,-386.1003 1448.4275,-380.1003 1448.4275,-380.1003 1448.4275,-328.6997 1448.4275,-328.6997 1448.4275,-322.6997 1454.4275,-316.6997 1460.4275,-316.6997 1460.4275,-316.6997 1587.4567,-316.6997 1587.4567,-316.6997 1593.4567,-316.6997 1599.4567,-322.6997 1599.4567,-328.6997 1599.4567,-328.6997 1599.4567,-380.1003 1599.4567,-380.1003 1599.4567,-386.1003 1593.4567,-392.1003 1587.4567,-392.1003"/>
<text text-anchor="middle" x="1523.9421" y="-375.4" font-family="Helvetica,sans-Serif" font-size="14.00" fill="#000000">famsize_LE3 &lt;= 0.5</text>
<text text-anchor="middle" x="1523.9421" y="-358.6" font-family="Helvetica,sans-Serif" font-size="14.00" fill="#000000">samples = 11.5%</text>
<text text-anchor="middle" x="1523.9421" y="-341.8" font-family="Helvetica,sans-Serif" font-size="14.00" fill="#000000">value = [0.957, 0.043]</text>
<text text-anchor="middle" x="1523.9421" y="-325" font-family="Helvetica,sans-Serif" font-size="14.00" fill="#000000">class = fail</text>
</g>
<!-- 26&#45;&gt;27 -->
<g id="edge27" class="edge">
<title>26&#45;&gt;27</title>
<path fill="none" stroke="#000000" d="M1523.9421,-427.9528C1523.9421,-419.62 1523.9421,-410.6845 1523.9421,-402.0137"/>
<polygon fill="#000000" stroke="#000000" points="1527.4422,-402.0084 1523.9421,-392.0085 1520.4422,-402.0085 1527.4422,-402.0084"/>
</g>
<!-- 34 -->
<g id="node35" class="node">
<title>34</title>
<path fill="#f2c09c" stroke="#000000" d="M1825.4567,-392.1003C1825.4567,-392.1003 1698.4275,-392.1003 1698.4275,-392.1003 1692.4275,-392.1003 1686.4275,-386.1003 1686.4275,-380.1003 1686.4275,-380.1003 1686.4275,-328.6997 1686.4275,-328.6997 1686.4275,-322.6997 1692.4275,-316.6997 1698.4275,-316.6997 1698.4275,-316.6997 1825.4567,-316.6997 1825.4567,-316.6997 1831.4567,-316.6997 1837.4567,-322.6997 1837.4567,-328.6997 1837.4567,-328.6997 1837.4567,-380.1003 1837.4567,-380.1003 1837.4567,-386.1003 1831.4567,-392.1003 1825.4567,-392.1003"/>
<text text-anchor="middle" x="1761.9421" y="-375.4" font-family="Helvetica,sans-Serif" font-size="14.00" fill="#000000">paid_no &lt;= 0.5</text>
<text text-anchor="middle" x="1761.9421" y="-358.6" font-family="Helvetica,sans-Serif" font-size="14.00" fill="#000000">samples = 7.5%</text>
<text text-anchor="middle" x="1761.9421" y="-341.8" font-family="Helvetica,sans-Serif" font-size="14.00" fill="#000000">value = [0.667, 0.333]</text>
<text text-anchor="middle" x="1761.9421" y="-325" font-family="Helvetica,sans-Serif" font-size="14.00" fill="#000000">class = fail</text>
</g>
<!-- 26&#45;&gt;34 -->
<g id="edge34" class="edge">
<title>26&#45;&gt;34</title>
<path fill="none" stroke="#000000" d="M1599.5738,-430.2628C1624.1826,-418.7649 1651.6579,-405.9277 1676.9068,-394.1308"/>
<polygon fill="#000000" stroke="#000000" points="1678.5205,-397.2401 1686.0988,-389.836 1675.5573,-390.8981 1678.5205,-397.2401"/>
</g>
<!-- 28 -->
<g id="node29" class="node">
<title>28</title>
<path fill="#e58139" stroke="#000000" d="M1503.8264,-272.6014C1503.8264,-272.6014 1408.0578,-272.6014 1408.0578,-272.6014 1402.0578,-272.6014 1396.0578,-266.6014 1396.0578,-260.6014 1396.0578,-260.6014 1396.0578,-225.7986 1396.0578,-225.7986 1396.0578,-219.7986 1402.0578,-213.7986 1408.0578,-213.7986 1408.0578,-213.7986 1503.8264,-213.7986 1503.8264,-213.7986 1509.8264,-213.7986 1515.8264,-219.7986 1515.8264,-225.7986 1515.8264,-225.7986 1515.8264,-260.6014 1515.8264,-260.6014 1515.8264,-266.6014 1509.8264,-272.6014 1503.8264,-272.6014"/>
<text text-anchor="middle" x="1455.9421" y="-255.8" font-family="Helvetica,sans-Serif" font-size="14.00" fill="#000000">samples = 8.0%</text>
<text text-anchor="middle" x="1455.9421" y="-239" font-family="Helvetica,sans-Serif" font-size="14.00" fill="#000000">value = [1.0, 0.0]</text>
<text text-anchor="middle" x="1455.9421" y="-222.2" font-family="Helvetica,sans-Serif" font-size="14.00" fill="#000000">class = fail</text>
</g>
<!-- 27&#45;&gt;28 -->
<g id="edge28" class="edge">
<title>27&#45;&gt;28</title>
<path fill="none" stroke="#000000" d="M1500.9204,-316.7528C1493.9886,-305.4173 1486.3749,-292.9665 1479.4142,-281.5838"/>
<polygon fill="#000000" stroke="#000000" points="1482.2005,-279.4312 1473.9975,-272.7258 1476.2285,-283.0831 1482.2005,-279.4312"/>
</g>
<!-- 29 -->
<g id="node30" class="node">
<title>29</title>
<path fill="#e9965a" stroke="#000000" d="M1672.4567,-280.9003C1672.4567,-280.9003 1545.4275,-280.9003 1545.4275,-280.9003 1539.4275,-280.9003 1533.4275,-274.9003 1533.4275,-268.9003 1533.4275,-268.9003 1533.4275,-217.4997 1533.4275,-217.4997 1533.4275,-211.4997 1539.4275,-205.4997 1545.4275,-205.4997 1545.4275,-205.4997 1672.4567,-205.4997 1672.4567,-205.4997 1678.4567,-205.4997 1684.4567,-211.4997 1684.4567,-217.4997 1684.4567,-217.4997 1684.4567,-268.9003 1684.4567,-268.9003 1684.4567,-274.9003 1678.4567,-280.9003 1672.4567,-280.9003"/>
<text text-anchor="middle" x="1608.9421" y="-264.2" font-family="Helvetica,sans-Serif" font-size="14.00" fill="#000000">studytime &lt;= 1.5</text>
<text text-anchor="middle" x="1608.9421" y="-247.4" font-family="Helvetica,sans-Serif" font-size="14.00" fill="#000000">samples = 3.5%</text>
<text text-anchor="middle" x="1608.9421" y="-230.6" font-family="Helvetica,sans-Serif" font-size="14.00" fill="#000000">value = [0.857, 0.143]</text>
<text text-anchor="middle" x="1608.9421" y="-213.8" font-family="Helvetica,sans-Serif" font-size="14.00" fill="#000000">class = fail</text>
</g>
<!-- 27&#45;&gt;29 -->
<g id="edge29" class="edge">
<title>27&#45;&gt;29</title>
<path fill="none" stroke="#000000" d="M1552.7192,-316.7528C1559.5733,-307.786 1566.9609,-298.1213 1574.0558,-288.8395"/>
<polygon fill="#000000" stroke="#000000" points="1576.9023,-290.8788 1580.1946,-280.8085 1571.341,-286.6278 1576.9023,-290.8788"/>
</g>
<!-- 30 -->
<g id="node31" class="node">
<title>30</title>
<path fill="#e58139" stroke="#000000" d="M1656.8264,-161.4014C1656.8264,-161.4014 1561.0578,-161.4014 1561.0578,-161.4014 1555.0578,-161.4014 1549.0578,-155.4014 1549.0578,-149.4014 1549.0578,-149.4014 1549.0578,-114.5986 1549.0578,-114.5986 1549.0578,-108.5986 1555.0578,-102.5986 1561.0578,-102.5986 1561.0578,-102.5986 1656.8264,-102.5986 1656.8264,-102.5986 1662.8264,-102.5986 1668.8264,-108.5986 1668.8264,-114.5986 1668.8264,-114.5986 1668.8264,-149.4014 1668.8264,-149.4014 1668.8264,-155.4014 1662.8264,-161.4014 1656.8264,-161.4014"/>
<text text-anchor="middle" x="1608.9421" y="-144.6" font-family="Helvetica,sans-Serif" font-size="14.00" fill="#000000">samples = 2.5%</text>
<text text-anchor="middle" x="1608.9421" y="-127.8" font-family="Helvetica,sans-Serif" font-size="14.00" fill="#000000">value = [1.0, 0.0]</text>
<text text-anchor="middle" x="1608.9421" y="-111" font-family="Helvetica,sans-Serif" font-size="14.00" fill="#000000">class = fail</text>
</g>
<!-- 29&#45;&gt;30 -->
<g id="edge30" class="edge">
<title>29&#45;&gt;30</title>
<path fill="none" stroke="#000000" d="M1608.9421,-205.5528C1608.9421,-194.6662 1608.9421,-182.751 1608.9421,-171.7411"/>
<polygon fill="#000000" stroke="#000000" points="1612.4422,-171.5258 1608.9421,-161.5258 1605.4422,-171.5259 1612.4422,-171.5258"/>
</g>
<!-- 31 -->
<g id="node32" class="node">
<title>31</title>
<path fill="#ffffff" stroke="#000000" d="M1802.7088,-169.7003C1802.7088,-169.7003 1699.1754,-169.7003 1699.1754,-169.7003 1693.1754,-169.7003 1687.1754,-163.7003 1687.1754,-157.7003 1687.1754,-157.7003 1687.1754,-106.2997 1687.1754,-106.2997 1687.1754,-100.2997 1693.1754,-94.2997 1699.1754,-94.2997 1699.1754,-94.2997 1802.7088,-94.2997 1802.7088,-94.2997 1808.7088,-94.2997 1814.7088,-100.2997 1814.7088,-106.2997 1814.7088,-106.2997 1814.7088,-157.7003 1814.7088,-157.7003 1814.7088,-163.7003 1808.7088,-169.7003 1802.7088,-169.7003"/>
<text text-anchor="middle" x="1750.9421" y="-153" font-family="Helvetica,sans-Serif" font-size="14.00" fill="#000000">address_R &lt;= 0.5</text>
<text text-anchor="middle" x="1750.9421" y="-136.2" font-family="Helvetica,sans-Serif" font-size="14.00" fill="#000000">samples = 1.0%</text>
<text text-anchor="middle" x="1750.9421" y="-119.4" font-family="Helvetica,sans-Serif" font-size="14.00" fill="#000000">value = [0.5, 0.5]</text>
<text text-anchor="middle" x="1750.9421" y="-102.6" font-family="Helvetica,sans-Serif" font-size="14.00" fill="#000000">class = fail</text>
</g>
<!-- 29&#45;&gt;31 -->
<g id="edge31" class="edge">
<title>29&#45;&gt;31</title>
<path fill="none" stroke="#000000" d="M1657.0168,-205.5528C1669.1612,-196.0425 1682.308,-185.7473 1694.8108,-175.9564"/>
<polygon fill="#000000" stroke="#000000" points="1697.2016,-178.5296 1702.9169,-169.6085 1692.8858,-173.0184 1697.2016,-178.5296"/>
</g>
<!-- 32 -->
<g id="node33" class="node">
<title>32</title>
<path fill="#399de5" stroke="#000000" d="M1754.8264,-58.6014C1754.8264,-58.6014 1659.0578,-58.6014 1659.0578,-58.6014 1653.0578,-58.6014 1647.0578,-52.6014 1647.0578,-46.6014 1647.0578,-46.6014 1647.0578,-11.7986 1647.0578,-11.7986 1647.0578,-5.7986 1653.0578,.2014 1659.0578,.2014 1659.0578,.2014 1754.8264,.2014 1754.8264,.2014 1760.8264,.2014 1766.8264,-5.7986 1766.8264,-11.7986 1766.8264,-11.7986 1766.8264,-46.6014 1766.8264,-46.6014 1766.8264,-52.6014 1760.8264,-58.6014 1754.8264,-58.6014"/>
<text text-anchor="middle" x="1706.9421" y="-41.8" font-family="Helvetica,sans-Serif" font-size="14.00" fill="#000000">samples = 0.5%</text>
<text text-anchor="middle" x="1706.9421" y="-25" font-family="Helvetica,sans-Serif" font-size="14.00" fill="#000000">value = [0.0, 1.0]</text>
<text text-anchor="middle" x="1706.9421" y="-8.2" font-family="Helvetica,sans-Serif" font-size="14.00" fill="#000000">class = pass</text>
</g>
<!-- 31&#45;&gt;32 -->
<g id="edge32" class="edge">
<title>31&#45;&gt;32</title>
<path fill="none" stroke="#000000" d="M1734.808,-94.3048C1731.137,-85.7282 1727.231,-76.6024 1723.5411,-67.9813"/>
<polygon fill="#000000" stroke="#000000" points="1726.6435,-66.3347 1719.4909,-58.5186 1720.2082,-69.0892 1726.6435,-66.3347"/>
</g>
<!-- 33 -->
<g id="node34" class="node">
<title>33</title>
<path fill="#e58139" stroke="#000000" d="M1892.8264,-58.6014C1892.8264,-58.6014 1797.0578,-58.6014 1797.0578,-58.6014 1791.0578,-58.6014 1785.0578,-52.6014 1785.0578,-46.6014 1785.0578,-46.6014 1785.0578,-11.7986 1785.0578,-11.7986 1785.0578,-5.7986 1791.0578,.2014 1797.0578,.2014 1797.0578,.2014 1892.8264,.2014 1892.8264,.2014 1898.8264,.2014 1904.8264,-5.7986 1904.8264,-11.7986 1904.8264,-11.7986 1904.8264,-46.6014 1904.8264,-46.6014 1904.8264,-52.6014 1898.8264,-58.6014 1892.8264,-58.6014"/>
<text text-anchor="middle" x="1844.9421" y="-41.8" font-family="Helvetica,sans-Serif" font-size="14.00" fill="#000000">samples = 0.5%</text>
<text text-anchor="middle" x="1844.9421" y="-25" font-family="Helvetica,sans-Serif" font-size="14.00" fill="#000000">value = [1.0, 0.0]</text>
<text text-anchor="middle" x="1844.9421" y="-8.2" font-family="Helvetica,sans-Serif" font-size="14.00" fill="#000000">class = fail</text>
</g>
<!-- 31&#45;&gt;33 -->
<g id="edge33" class="edge">
<title>31&#45;&gt;33</title>
<path fill="none" stroke="#000000" d="M1785.4105,-94.3048C1793.8432,-85.0826 1802.8566,-75.2255 1811.2523,-66.0437"/>
<polygon fill="#000000" stroke="#000000" points="1813.968,-68.2604 1818.1332,-58.5186 1808.8021,-63.5367 1813.968,-68.2604"/>
</g>
<!-- 35 -->
<g id="node36" class="node">
<title>35</title>
<path fill="#e58139" stroke="#000000" d="M1809.8264,-272.6014C1809.8264,-272.6014 1714.0578,-272.6014 1714.0578,-272.6014 1708.0578,-272.6014 1702.0578,-266.6014 1702.0578,-260.6014 1702.0578,-260.6014 1702.0578,-225.7986 1702.0578,-225.7986 1702.0578,-219.7986 1708.0578,-213.7986 1714.0578,-213.7986 1714.0578,-213.7986 1809.8264,-213.7986 1809.8264,-213.7986 1815.8264,-213.7986 1821.8264,-219.7986 1821.8264,-225.7986 1821.8264,-225.7986 1821.8264,-260.6014 1821.8264,-260.6014 1821.8264,-266.6014 1815.8264,-272.6014 1809.8264,-272.6014"/>
<text text-anchor="middle" x="1761.9421" y="-255.8" font-family="Helvetica,sans-Serif" font-size="14.00" fill="#000000">samples = 3.0%</text>
<text text-anchor="middle" x="1761.9421" y="-239" font-family="Helvetica,sans-Serif" font-size="14.00" fill="#000000">value = [1.0, 0.0]</text>
<text text-anchor="middle" x="1761.9421" y="-222.2" font-family="Helvetica,sans-Serif" font-size="14.00" fill="#000000">class = fail</text>
</g>
<!-- 34&#45;&gt;35 -->
<g id="edge35" class="edge">
<title>34&#45;&gt;35</title>
<path fill="none" stroke="#000000" d="M1761.9421,-316.7528C1761.9421,-305.8662 1761.9421,-293.951 1761.9421,-282.9411"/>
<polygon fill="#000000" stroke="#000000" points="1765.4422,-282.7258 1761.9421,-272.7258 1758.4422,-282.7259 1765.4422,-282.7258"/>
</g>
<!-- 36 -->
<g id="node37" class="node">
<title>36</title>
<path fill="#d7ebfa" stroke="#000000" d="M1978.4567,-280.9003C1978.4567,-280.9003 1851.4275,-280.9003 1851.4275,-280.9003 1845.4275,-280.9003 1839.4275,-274.9003 1839.4275,-268.9003 1839.4275,-268.9003 1839.4275,-217.4997 1839.4275,-217.4997 1839.4275,-211.4997 1845.4275,-205.4997 1851.4275,-205.4997 1851.4275,-205.4997 1978.4567,-205.4997 1978.4567,-205.4997 1984.4567,-205.4997 1990.4567,-211.4997 1990.4567,-217.4997 1990.4567,-217.4997 1990.4567,-268.9003 1990.4567,-268.9003 1990.4567,-274.9003 1984.4567,-280.9003 1978.4567,-280.9003"/>
<text text-anchor="middle" x="1914.9421" y="-264.2" font-family="Helvetica,sans-Serif" font-size="14.00" fill="#000000">age &lt;= 17.5</text>
<text text-anchor="middle" x="1914.9421" y="-247.4" font-family="Helvetica,sans-Serif" font-size="14.00" fill="#000000">samples = 4.5%</text>
<text text-anchor="middle" x="1914.9421" y="-230.6" font-family="Helvetica,sans-Serif" font-size="14.00" fill="#000000">value = [0.444, 0.556]</text>
<text text-anchor="middle" x="1914.9421" y="-213.8" font-family="Helvetica,sans-Serif" font-size="14.00" fill="#000000">class = pass</text>
</g>
<!-- 34&#45;&gt;36 -->
<g id="edge36" class="edge">
<title>34&#45;&gt;36</title>
<path fill="none" stroke="#000000" d="M1813.7409,-316.7528C1826.9507,-307.1519 1841.2612,-296.7511 1854.8473,-286.8768"/>
<polygon fill="#000000" stroke="#000000" points="1857.1651,-289.5189 1863.1966,-280.8085 1853.0497,-283.8565 1857.1651,-289.5189"/>
</g>
<!-- 37 -->
<g id="node38" class="node">
<title>37</title>
<path fill="#e58139" stroke="#000000" d="M1951.8264,-161.4014C1951.8264,-161.4014 1856.0578,-161.4014 1856.0578,-161.4014 1850.0578,-161.4014 1844.0578,-155.4014 1844.0578,-149.4014 1844.0578,-149.4014 1844.0578,-114.5986 1844.0578,-114.5986 1844.0578,-108.5986 1850.0578,-102.5986 1856.0578,-102.5986 1856.0578,-102.5986 1951.8264,-102.5986 1951.8264,-102.5986 1957.8264,-102.5986 1963.8264,-108.5986 1963.8264,-114.5986 1963.8264,-114.5986 1963.8264,-149.4014 1963.8264,-149.4014 1963.8264,-155.4014 1957.8264,-161.4014 1951.8264,-161.4014"/>
<text text-anchor="middle" x="1903.9421" y="-144.6" font-family="Helvetica,sans-Serif" font-size="14.00" fill="#000000">samples = 1.5%</text>
<text text-anchor="middle" x="1903.9421" y="-127.8" font-family="Helvetica,sans-Serif" font-size="14.00" fill="#000000">value = [1.0, 0.0]</text>
<text text-anchor="middle" x="1903.9421" y="-111" font-family="Helvetica,sans-Serif" font-size="14.00" fill="#000000">class = fail</text>
</g>
<!-- 36&#45;&gt;37 -->
<g id="edge37" class="edge">
<title>36&#45;&gt;37</title>
<path fill="none" stroke="#000000" d="M1911.218,-205.5528C1910.1411,-194.6662 1908.9624,-182.751 1907.8733,-171.7411"/>
<polygon fill="#000000" stroke="#000000" points="1911.3303,-171.1327 1906.8628,-161.5258 1904.3643,-171.8218 1911.3303,-171.1327"/>
</g>
<!-- 38 -->
<g id="node39" class="node">
<title>38</title>
<path fill="#61b1ea" stroke="#000000" d="M2120.4567,-169.7003C2120.4567,-169.7003 1993.4275,-169.7003 1993.4275,-169.7003 1987.4275,-169.7003 1981.4275,-163.7003 1981.4275,-157.7003 1981.4275,-157.7003 1981.4275,-106.2997 1981.4275,-106.2997 1981.4275,-100.2997 1987.4275,-94.2997 1993.4275,-94.2997 1993.4275,-94.2997 2120.4567,-94.2997 2120.4567,-94.2997 2126.4567,-94.2997 2132.4567,-100.2997 2132.4567,-106.2997 2132.4567,-106.2997 2132.4567,-157.7003 2132.4567,-157.7003 2132.4567,-163.7003 2126.4567,-169.7003 2120.4567,-169.7003"/>
<text text-anchor="middle" x="2056.9421" y="-153" font-family="Helvetica,sans-Serif" font-size="14.00" fill="#000000">activities_yes &lt;= 0.5</text>
<text text-anchor="middle" x="2056.9421" y="-136.2" font-family="Helvetica,sans-Serif" font-size="14.00" fill="#000000">samples = 3.0%</text>
<text text-anchor="middle" x="2056.9421" y="-119.4" font-family="Helvetica,sans-Serif" font-size="14.00" fill="#000000">value = [0.167, 0.833]</text>
<text text-anchor="middle" x="2056.9421" y="-102.6" font-family="Helvetica,sans-Serif" font-size="14.00" fill="#000000">class = pass</text>
</g>
<!-- 36&#45;&gt;38 -->
<g id="edge38" class="edge">
<title>36&#45;&gt;38</title>
<path fill="none" stroke="#000000" d="M1963.0168,-205.5528C1975.1612,-196.0425 1988.308,-185.7473 2000.8108,-175.9564"/>
<polygon fill="#000000" stroke="#000000" points="2003.2016,-178.5296 2008.9169,-169.6085 1998.8858,-173.0184 2003.2016,-178.5296"/>
</g>
<!-- 39 -->
<g id="node40" class="node">
<title>39</title>
<path fill="#399de5" stroke="#000000" d="M2067.8264,-58.6014C2067.8264,-58.6014 1972.0578,-58.6014 1972.0578,-58.6014 1966.0578,-58.6014 1960.0578,-52.6014 1960.0578,-46.6014 1960.0578,-46.6014 1960.0578,-11.7986 1960.0578,-11.7986 1960.0578,-5.7986 1966.0578,.2014 1972.0578,.2014 1972.0578,.2014 2067.8264,.2014 2067.8264,.2014 2073.8264,.2014 2079.8264,-5.7986 2079.8264,-11.7986 2079.8264,-11.7986 2079.8264,-46.6014 2079.8264,-46.6014 2079.8264,-52.6014 2073.8264,-58.6014 2067.8264,-58.6014"/>
<text text-anchor="middle" x="2019.9421" y="-41.8" font-family="Helvetica,sans-Serif" font-size="14.00" fill="#000000">samples = 2.0%</text>
<text text-anchor="middle" x="2019.9421" y="-25" font-family="Helvetica,sans-Serif" font-size="14.00" fill="#000000">value = [0.0, 1.0]</text>
<text text-anchor="middle" x="2019.9421" y="-8.2" font-family="Helvetica,sans-Serif" font-size="14.00" fill="#000000">class = pass</text>
</g>
<!-- 38&#45;&gt;39 -->
<g id="edge39" class="edge">
<title>38&#45;&gt;39</title>
<path fill="none" stroke="#000000" d="M2043.3748,-94.3048C2040.2878,-85.7282 2037.0033,-76.6024 2033.9004,-67.9813"/>
<polygon fill="#000000" stroke="#000000" points="2037.1743,-66.7424 2030.4945,-58.5186 2030.5879,-69.1131 2037.1743,-66.7424"/>
</g>
<!-- 40 -->
<g id="node41" class="node">
<title>40</title>
<path fill="#ffffff" stroke="#000000" d="M2205.8264,-58.6014C2205.8264,-58.6014 2110.0578,-58.6014 2110.0578,-58.6014 2104.0578,-58.6014 2098.0578,-52.6014 2098.0578,-46.6014 2098.0578,-46.6014 2098.0578,-11.7986 2098.0578,-11.7986 2098.0578,-5.7986 2104.0578,.2014 2110.0578,.2014 2110.0578,.2014 2205.8264,.2014 2205.8264,.2014 2211.8264,.2014 2217.8264,-5.7986 2217.8264,-11.7986 2217.8264,-11.7986 2217.8264,-46.6014 2217.8264,-46.6014 2217.8264,-52.6014 2211.8264,-58.6014 2205.8264,-58.6014"/>
<text text-anchor="middle" x="2157.9421" y="-41.8" font-family="Helvetica,sans-Serif" font-size="14.00" fill="#000000">samples = 1.0%</text>
<text text-anchor="middle" x="2157.9421" y="-25" font-family="Helvetica,sans-Serif" font-size="14.00" fill="#000000">value = [0.5, 0.5]</text>
<text text-anchor="middle" x="2157.9421" y="-8.2" font-family="Helvetica,sans-Serif" font-size="14.00" fill="#000000">class = fail</text>
</g>
<!-- 38&#45;&gt;40 -->
<g id="edge40" class="edge">
<title>38&#45;&gt;40</title>
<path fill="none" stroke="#000000" d="M2093.9773,-94.3048C2103.1286,-84.9904 2112.9163,-75.0283 2122.014,-65.7684"/>
<polygon fill="#000000" stroke="#000000" points="2124.6251,-68.1048 2129.1368,-58.5186 2119.6318,-63.199 2124.6251,-68.1048"/>
</g>
</g>
</svg>
